<?xml version="1.0" encoding="UTF-8" standalone="no"?>
<!-- Creator: CorelDRAW X6 -->

<svg
   xmlns:dc="http://purl.org/dc/elements/1.1/"
   xmlns:cc="http://creativecommons.org/ns#"
   xmlns:rdf="http://www.w3.org/1999/02/22-rdf-syntax-ns#"
   xmlns:svg="http://www.w3.org/2000/svg"
   xmlns="http://www.w3.org/2000/svg"
   xmlns:sodipodi="http://sodipodi.sourceforge.net/DTD/sodipodi-0.dtd"
   xmlns:inkscape="http://www.inkscape.org/namespaces/inkscape"
   xml:space="preserve"
   width="714.89764"
   height="209.30315"
   version="1.1"
   style="fill-rule:evenodd"
   viewBox="0 0 20192.3 5911.9001"
   id="svg2985"
   inkscape:version="0.92.3pre0 (f5a6572, 2018-03-03)"
   sodipodi:docname="diagram4Opened.svg"><metadata
   id="metadata3082"><rdf:RDF><cc:Work
       rdf:about=""><dc:format>image/svg+xml</dc:format><dc:type
         rdf:resource="http://purl.org/dc/dcmitype/StillImage" /><dc:title></dc:title></cc:Work></rdf:RDF></metadata><sodipodi:namedview
   pagecolor="#ffffff"
   bordercolor="#666666"
   borderopacity="1"
   objecttolerance="10"
   gridtolerance="10"
   guidetolerance="10"
   inkscape:pageopacity="0"
   inkscape:pageshadow="2"
   inkscape:window-width="1920"
   inkscape:window-height="1017"
   id="namedview3080"
   showgrid="false"
   inkscape:zoom="1.7408456"
   inkscape:cx="306.33444"
   inkscape:cy="167.94503"
   inkscape:window-x="-8"
   inkscape:window-y="-8"
   inkscape:window-maximized="1"
   inkscape:current-layer="svg2985"
   inkscape:snap-bbox="false"
   inkscape:bbox-paths="false"
   inkscape:snap-bbox-edge-midpoints="true"
   inkscape:snap-bbox-midpoints="true"
   inkscape:document-units="mm"
   units="px"
   fit-margin-left="0.5"
   fit-margin-top="0.5"
   fit-margin-right="0.5"
   fit-margin-bottom="0.5"
   inkscape:object-nodes="true"
   inkscape:object-paths="true"
   inkscape:snap-intersection-paths="true"
   inkscape:snap-smooth-nodes="true"
   inkscape:snap-midpoints="true"
   inkscape:snap-object-midpoints="true"
   inkscape:snap-center="true"
   showguides="false" /><defs
   id="defs2987"><style
     type="text/css"
     id="style2989">
   
    .str1 {stroke:#373435;stroke-width:26.4813}
    .str0 {stroke:black;stroke-width:26.4813}
    .str4 {stroke:black;stroke-width:26.4813;stroke-linecap:round}
    .str3 {stroke:black;stroke-width:26.4813;stroke-linecap:round;stroke-linejoin:round}
    .str2 {stroke:black;stroke-width:26.5213;stroke-linecap:round;stroke-linejoin:round}
    .str5 {stroke:black;stroke-width:36.2391;stroke-linecap:round;stroke-linejoin:round}
    .fil6 {fill:none}
    .fil3 {fill:#FFF688}
    .fil7 {fill:black}
    .fil0 {fill:#5FD38D}
    .fil2 {fill:#AFC6E9}
    .fil5 {fill:#E6E6E6}
    .fil4 {fill:#FFAAAA}
    .fil1 {fill:black;fill-rule:nonzero}
   
  </style></defs><path
   style="fill:#5fd38d;stroke:#000000;stroke-width:26.48130035"
   inkscape:connector-curvature="0"
   id="path2993"
   d="m 13965.178,1894.1913 1778.11,0 c 51.95,0 93.668,53 93.668,119 l 0,1107 c 0,65 -41.718,119 -93.668,119 l -1778.11,0 c -51.949,0 -93.668,-54 -93.668,-119 l 0,-1107 c 0,-66 41.719,-119 93.668,-119 z"
   class="fil0 str0" /><g
   id="g3418"
   transform="translate(1602.815,56.491267)"><path
     id="text2987"
     class="fil1"
     d="m 13021.918,2540.7 0,-34 122,0 0,108 c -18,14 -38,26 -58,33 -20,8 -40,12 -61,12 -29,0 -54,-6 -78,-19 -23,-12 -40,-29 -52,-52 -12,-23 -18,-49 -18,-77 0,-28 6,-55 18,-79 12,-24 29,-42 51,-54 22,-12 47,-18 76,-18 21,0 40,3 56,10 17,7 31,16 40,28 10,13 17,28 22,48 l -35,9 c -4,-14 -9,-26 -16,-35 -6,-8 -15,-15 -27,-20 -12,-5 -25,-7 -40,-7 -17,0 -32,2 -45,8 -13,5 -23,12 -31,21 -8,8 -14,18 -18,28 -7,18 -11,38 -11,59 0,25 4,47 13,64 9,18 22,31 39,39 17,8 35,13 54,13 16,0 32,-4 48,-10 16,-6 28,-13 36,-21 l 0,-54 -85,0 z"
     inkscape:connector-curvature="0"
     style="fill:#000000;fill-rule:nonzero" /><path
     id="1"
     class="fil1"
     d="m 13263.918,2699.2 c -19,-24 -36,-53 -49,-86 -14,-33 -21,-68 -21,-103 0,-31 5,-61 15,-90 12,-33 30,-66 55,-99 l 25,0 c -15,27 -26,47 -31,59 -8,18 -14,37 -19,56 -6,25 -8,49 -8,74 0,63 19,126 58,189 l -25,0 z"
     inkscape:connector-curvature="0"
     style="fill:#000000;fill-rule:nonzero" /><path
     id="2"
     class="fil1"
     d="m 13316.918,2552.2 35,-5 c 2,14 7,24 16,32 9,7 22,11 38,11 16,0 28,-3 36,-10 8,-6 12,-14 12,-23 0,-8 -3,-14 -11,-19 -5,-3 -17,-7 -36,-12 -26,-7 -44,-12 -54,-17 -10,-5 -17,-11 -23,-20 -5,-8 -7,-18 -7,-28 0,-9 2,-18 6,-26 4,-8 10,-14 17,-20 6,-4 13,-7 23,-10 9,-3 20,-4 30,-4 17,0 31,2 44,7 12,5 21,11 27,19 6,8 10,19 12,33 l -34,5 c -2,-11 -7,-20 -14,-26 -8,-6 -18,-9 -32,-9 -16,0 -28,3 -35,8 -7,5 -10,12 -10,19 0,4 1,9 4,12 3,4 8,7 14,10 3,1 14,4 31,9 25,7 42,12 52,16 10,4 18,11 24,19 6,8 8,18 8,30 0,12 -3,23 -10,33 -7,11 -17,19 -30,25 -13,5 -28,8 -44,8 -27,0 -48,-5 -62,-17 -14,-11 -24,-28 -27,-50 z"
     inkscape:connector-curvature="0"
     style="fill:#000000;fill-rule:nonzero" /><path
     id="3"
     class="fil1"
     d="m 13555.918,2699.2 -26,0 c 40,-63 59,-126 59,-189 0,-24 -3,-49 -8,-73 -5,-20 -11,-39 -19,-57 -5,-12 -16,-31 -32,-59 l 26,0 c 24,33 43,66 54,99 10,29 16,59 16,90 0,35 -7,70 -21,103 -13,33 -30,62 -49,86 z"
     inkscape:connector-curvature="0"
     style="fill:#000000;fill-rule:nonzero" /></g><g
   id="g4319"
   transform="translate(-1468.7732,56.491267)"><path
     id="text2999"
     class="fil1"
     d="m 1887.578,2168.6999 54,-257 39,0 -12,53 c 14,-20 27,-34 39,-44 13,-9 26,-14 39,-14 9,0 20,3 32,9 l -18,41 c -7,-6 -16,-8 -24,-8 -16,0 -32,8 -48,25 -16,17 -29,48 -38,92 l -21,103 -42,0 z"
     inkscape:connector-curvature="0"
     style="fill:#000000;fill-rule:nonzero" /><path
     id="path3018"
     class="fil1"
     d="m 2115.578,2272.6999 c -26,-56 -39,-112 -39,-171 0,-39 6,-75 16,-108 10,-34 26,-67 47,-100 13,-22 36,-50 66,-85 l 34,0 c -19,20 -39,49 -60,85 -21,37 -36,72 -46,108 -9,35 -14,70 -14,106 0,53 9,108 28,165 l -32,0 z"
     inkscape:connector-curvature="0"
     style="fill:#000000;fill-rule:nonzero" /><path
     id="path3020"
     class="fil1"
     d="m 2318.578,2133.6999 -7,35 c -11,3 -21,4 -31,4 -17,0 -31,-4 -41,-12 -8,-7 -12,-16 -12,-27 0,-5 2,-18 7,-39 l 31,-149 -35,0 7,-34 35,0 13,-62 50,-30 -20,92 43,0 -7,34 -43,0 -29,142 c -4,18 -6,29 -6,32 0,6 2,10 5,12 3,3 7,4 14,4 10,0 18,-1 26,-2 z"
     inkscape:connector-curvature="0"
     style="fill:#000000;fill-rule:nonzero" /><path
     id="path3022"
     class="fil1"
     d="m 2435.578,1808.6999 c 25,56 38,112 38,170 0,40 -5,76 -16,109 -10,34 -25,67 -46,100 -14,22 -36,50 -67,85 l -34,0 c 19,-20 39,-49 60,-85 21,-37 36,-73 46,-108 9,-35 14,-70 14,-106 0,-53 -9,-108 -28,-165 l 33,0 z"
     inkscape:connector-curvature="0"
     style="fill:#000000;fill-rule:nonzero" /></g><g
   id="g3432"
   transform="translate(1242.808,56.491267)"><path
     id="text3003"
     class="fil1"
     d="m 15352.836,401.69991 -26,-256.99999 42,0 11,115.99999 4,65 c 1,4 1,14 2,29 5,-17 10,-29 13,-38 3,-9 9,-21 16,-38 l 61,-133.99999 48,0 8,128.99999 c 1,19 2,45 3,78 8,-22 21,-52 39,-90 l 55,-116.99999 44,0 -125,256.99999 -46,0 -9,-150 c -1,-10 -2,-28 -2,-55 -7,17 -15,36 -24,56 l -68,149 -46,0 z"
     inkscape:connector-curvature="0"
     style="fill:#000000;fill-rule:nonzero" /><path
     id="path3025"
     class="fil1"
     d="m 15724.836,505.69991 c -26,-56 -38,-112 -38,-171 0,-39 5,-75 15,-108 10,-34 26,-67 47,-99.99999 14,-22 36,-50 66,-85.000003 l 34,0 c -19,20.000003 -39,49.000003 -60,85.000003 -21,36.99999 -36,71.99999 -46,107.99999 -9,35 -14,70 -14,106 0,53 10,108 28,165 l -32,0 z"
     inkscape:connector-curvature="0"
     style="fill:#000000;fill-rule:nonzero" /><path
     id="path3027"
     class="fil1"
     d="m 15927.836,366.69991 -7,35 c -11,3 -21,4 -30,4 -18,0 -32,-4 -42,-12 -8,-7 -11,-16 -11,-27 0,-5 2,-18 6,-39 l 31,-149 -35,0 7,-33.99999 35,0 13,-62 50,-30.000001 -20,92.000001 43,0 -7,33.99999 -43,0 -29,142 c -4,18 -6,29 -6,32 0,6 2,9 5,12 3,3 8,4 14,4 10,0 19,-1 26,-2 z"
     inkscape:connector-curvature="0"
     style="fill:#000000;fill-rule:nonzero" /><path
     id="path3029"
     class="fil1"
     d="m 16044.836,41.699917 c 25,55.000003 38,112.000003 38,169.999993 0,40 -5,76 -15,109 -11,34 -26,67 -47,100 -14,22 -36,50 -67,85 l -34,0 c 19,-21 39,-49 60,-85 21,-37 36,-73 46,-108 9,-35 14,-70 14,-106 0,-52.99999 -9,-107.99999 -28,-164.999993 l 33,0 z"
     inkscape:connector-curvature="0"
     style="fill:#000000;fill-rule:nonzero" /></g><path
   style="fill:#000000;fill-rule:nonzero"
   inkscape:connector-curvature="0"
   d="m 18860.607,2324.1912 3,-42 c 9,3 17,4 26,4 9,0 16,-2 21,-6 8,-5 15,-15 24,-30 l 14,-25 -43,-257 43,0 19,129 c 4,26 7,51 10,77 l 115,-206 45,0 -163,291 c -16,28 -30,47 -42,56 -12,9 -26,14 -42,14 -10,0 -20,-2 -30,-5 z"
   class="fil1"
   id="text3007" /><path
   style="fill:#000000;fill-rule:nonzero"
   inkscape:connector-curvature="0"
   d="m 19187.607,2329.1912 c -26,-56 -38,-112 -38,-171 0,-39 5,-75 15,-108 10,-34 26,-67 47,-100 14,-22 36,-50 66,-85 l 34,0 c -19,20 -39,49 -60,85 -21,37 -36,72 -46,108 -9,35 -14,70 -14,106 0,53 10,108 28,165 l -32,0 z"
   class="fil1"
   id="path3032" /><path
   style="fill:#000000;fill-rule:nonzero"
   inkscape:connector-curvature="0"
   d="m 19390.607,2190.1912 -7,35 c -10,3 -21,4 -30,4 -18,0 -32,-4 -42,-12 -7,-7 -11,-16 -11,-27 0,-5 2,-18 6,-39 l 31,-149 -35,0 7,-34 35,0 13,-62 50,-30 -20,92 43,0 -7,34 -42,0 -30,142 c -4,18 -6,29 -6,32 0,6 2,10 5,12 3,3 8,4 14,4 10,0 19,-1 26,-2 z"
   class="fil1"
   id="path3034" /><path
   style="fill:#000000;fill-rule:nonzero"
   inkscape:connector-curvature="0"
   d="m 19507.607,1865.1912 c 25,56 38,112 38,170 0,40 -5,76 -15,109 -10,34 -26,67 -47,100 -14,22 -36,50 -66,85 l -35,0 c 19,-20 39,-49 60,-85 21,-37 36,-73 46,-108 9,-35 14,-70 14,-106 0,-53 -9,-108 -28,-165 l 33,0 z"
   class="fil1"
   id="path3036" /><g
   id="g3426"
   transform="translate(1745.7603,56.4912)"><path
     id="text3011"
     class="fil1"
     d="m 11145.112,2120.1999 c -31,34 -62,51 -95,51 -19,0 -35,-5 -48,-16 -12,-12 -18,-26 -18,-42 0,-11 3,-29 9,-55 l 34,-149 44,0 -38,167 c -3,13 -4,24 -4,32 0,9 3,16 9,20 6,5 14,8 26,8 12,0 25,-3 36,-9 12,-6 23,-14 31,-24 9,-10 16,-22 21,-36 4,-8 8,-24 13,-46 l 24,-112 43,0 -56,257 -41,0 10,-46 z"
     inkscape:connector-curvature="0"
     style="fill:#000000;fill-rule:nonzero" /><path
     id="path3039"
     class="fil1"
     d="m 11308.112,2272.6999 c -26,-56 -38,-112 -38,-171 0,-39 5,-75 15,-108 10,-34 26,-67 47,-100 14,-22 36,-50 66,-85 l 34,0 c -19,20 -39,49 -60,85 -21,37 -36,72 -46,108 -9,35 -14,70 -14,106 0,53 10,108 28,165 l -32,0 z"
     inkscape:connector-curvature="0"
     style="fill:#000000;fill-rule:nonzero" /><path
     id="path3041"
     class="fil1"
     d="m 11511.112,2178.1999 -7,35 c -10,3 -21,4 -30,4 -18,0 -32,-4 -42,-12 -7,-7 -11,-16 -11,-27 0,-5 2,-18 6,-39 l 31,-149 -35,0 7,-34 35,0 13,-62 50,-30 -20,92 43,0 -7,34 -42,0 -30,142 c -4,18 -6,29 -6,32 0,6 2,10 5,12 3,3 8,4 14,4 10,0 19,-1 26,-2 z"
     inkscape:connector-curvature="0"
     style="fill:#000000;fill-rule:nonzero" /><path
     id="path3043"
     class="fil1"
     d="m 11628.112,1808.6999 c 25,56 38,112 38,170 0,40 -5,76 -15,109 -10,34 -26,67 -47,100 -14,22 -36,50 -66,85 l -35,0 c 19,-20 39,-49 60,-85 21,-37 36,-73 46,-108 9,-35 14,-70 14,-106 0,-53 -9,-108 -28,-165 l 33,0 z"
     inkscape:connector-curvature="0"
     style="fill:#000000;fill-rule:nonzero" /></g><polygon
   style="fill:#ffaaaa;stroke:#000000;stroke-width:26.52129936;stroke-linecap:round;stroke-linejoin:round"
   transform-center-x="-6.1063678"
   randomized="0"
   rounded="0"
   flatsided="false"
   arg2="1.0471976"
   arg1="0"
   r2="18.947092"
   r1="37.894188"
   cy="502.33411"
   cx="128.79445"
   sides="3"
   type="star"
   role="line"
   linespacing="125%"
   points="4979,3055 4979,2503 4979,1952 5595,2228 6211,2503 5595,2779 "
   class="fil4 str2"
   id="path5408"
   transform="translate(937.74226,63.691218)" /><polygon
   style="fill:#000000;fill-rule:nonzero"
   points="5206,2648 5206,2359 5245,2359 5245,2502 5388,2359 5440,2359 5319,2476 5445,2648 5395,2648 5292,2502 5245,2548 5245,2648 "
   class="fil1"
   id="text3019"
   transform="translate(981.27603,63.691184)" /><path
   style="fill:#e6e6e6;stroke:#000000;stroke-width:26.48130035"
   inkscape:connector-curvature="0"
   ry="15.152288"
   rx="15.152288"
   cy="513.95087"
   cx="535.88593"
   type="arc"
   role="line"
   linespacing="125%"
   d="m 17964.638,2565.1912 c 0,281 -228,509 -509,509 -281,0 -510,-228 -510,-509 0,-282 229,-510 510,-510 281,0 509,228 509,510 z"
   class="fil5 str0"
   id="path3052" /><path
   style="fill:#e6e6e6;stroke:#000000;stroke-width:26.48130035"
   inkscape:connector-curvature="0"
   type="arc"
   cx="535.88593"
   cy="513.95087"
   rx="15.152288"
   ry="15.152288"
   d="m 4889.0171,2566.6915 c 0,282 -228,510 -509,510 -282,0 -510,-228 -510,-510 0,-281 228,-509 510,-509 281,0 509,228 509,509 z"
   class="fil5 str0"
   id="path3822" /><line
   style="fill:none;stroke:#000000;stroke-width:26.48130035"
   connector-curvature="0"
   y2="2566.6912"
   x2="7847.272"
   y1="2566.6912"
   x1="7148.7422"
   class="fil6 str0"
   id="path3824" /><line
   style="fill:none;stroke:#000000;stroke-width:26.48130035"
   connector-curvature="0"
   y2="2566.6912"
   x2="16660.871"
   y1="2566.6912"
   x1="15836.956"
   class="fil6 str0"
   id="path4270" /><line
   style="fill:none;stroke:#000000;stroke-width:26.48130035"
   connector-curvature="0"
   y2="2550.1914"
   x2="19911.695"
   y1="2550.1914"
   x1="17971.688"
   class="fil6 str0"
   id="path4272" /><line
   style="fill:none;stroke:#000000;stroke-width:26.48130035;stroke-linecap:round;stroke-linejoin:round"
   connector-curvature="0"
   y2="2550.1914"
   x2="18728.945"
   y1="5288.6909"
   x1="18728.945"
   class="fil6 str3"
   id="path4278" /><line
   style="fill:none;stroke:#000000;stroke-width:26.48129845;stroke-linecap:round;stroke-linejoin:round"
   connector-curvature="0"
   y2="5289.1909"
   x2="4380.0166"
   y1="5289.1909"
   x1="14388.058"
   class="fil6 str3"
   id="path4280" /><line
   style="fill:none;stroke:#000000;stroke-width:26.48130035;stroke-linecap:round"
   connector-curvature="0"
   y2="5289.1909"
   x2="4380.0166"
   y1="3235.0076"
   x1="4380.0166"
   class="fil6 str4"
   id="path4646" /><polygon
   style="fill:#000000;fill-rule:nonzero"
   points="2169,2408 2169,2486 2247,2486 2247,2520 2169,2520 2169,2599 2135,2599 2135,2520 2057,2520 2057,2486 2135,2486 2135,2408 "
   class="fil1"
   id="text5390"
   transform="translate(1897.0171,63.191184)" /><polygon
   style="fill:#000000;fill-rule:nonzero"
   points="2538,2825 2538,2861 2428,2861 2428,2825 "
   class="fil1"
   id="text5394"
   transform="translate(1897.0171,63.191184)" /><polygon
   style="fill:#000000;fill-rule:nonzero"
   points="12913,2518 12913,2597 12879,2597 12879,2518 12800,2518 12800,2485 12879,2485 12879,2406 12913,2406 12913,2485 12991,2485 12991,2518 "
   class="fil1"
   id="text5398"
   transform="translate(4269.6517,63.191184)" /><polygon
   style="fill:#000000;fill-rule:nonzero"
   points="13203,2184 13203,2263 13169,2263 13169,2184 13091,2184 13091,2151 13169,2151 13169,2072 13203,2072 13203,2151 13281,2151 13281,2184 "
   class="fil1"
   id="text5402"
   transform="translate(4269.6517,63.191184)" /><line
   style="fill:none;stroke:#000000;stroke-width:26.48130035"
   connector-curvature="0"
   role="line"
   linespacing="125%"
   y2="2003.1913"
   x2="17454.674"
   y1="63.191433"
   x1="17454.674"
   class="fil6 str0"
   id="path5406" /><line
   style="fill:none;stroke:#000000;stroke-width:26.48130035"
   connector-curvature="0"
   y2="2567.1914"
   x2="5692.9707"
   y1="2567.1914"
   x1="4889.0171"
   class="fil6 str0"
   id="path5410" /><line
   style="fill:none;stroke:#000000;stroke-width:26.48130226"
   connector-curvature="0"
   y2="2567.1914"
   x2="1392.6138"
   y1="2567.1914"
   x1="170.59723"
   class="fil6 str0"
   id="path5412" /><polygon
   style="fill:#000000;stroke:#000000;stroke-width:36.23910141;stroke-linecap:round;stroke-linejoin:round"
   transform-center-x="-1.4292276"
   randomized="0"
   rounded="0"
   flatsided="false"
   arg2="1.0471976"
   arg1="0"
   r2="3.0370266"
   r1="6.0740542"
   cy="45.85627"
   cx="49.285713"
   sides="3"
   type="star"
   points="1653,2504 1653,2404 1797,2454 1941,2504 1797,2554 1653,2604 "
   class="fil7 str5"
   id="path5980"
   transform="translate(1897.5776,63.191462)" /><polygon
   style="fill:#000000;stroke:#000000;stroke-width:36.23910141;stroke-linecap:round;stroke-linejoin:round"
   transform-center-x="-1.4292276"
   randomized="0"
   rounded="0"
   flatsided="false"
   arg2="1.0471976"
   arg1="0"
   r2="3.0370266"
   r1="6.0740542"
   cy="45.85627"
   cx="49.285713"
   sides="3"
   type="star"
   points="2433,3195 2483,3051 2534,3195 2584,3340 2483,3340 2383,3340 "
   class="fil7 str5"
   id="path5980_0"
   transform="translate(1896.516,56.88176)" /><polygon
   style="fill:#000000;stroke:#000000;stroke-width:36.23910141;stroke-linecap:round;stroke-linejoin:round"
   transform-center-x="-1.4292276"
   randomized="0"
   rounded="0"
   flatsided="false"
   arg2="1.0471976"
   arg1="0"
   r2="3.0370266"
   r1="6.0740542"
   cy="45.85627"
   cx="49.285713"
   sides="3"
   type="star"
   points="4662,2404 4806,2454 4950,2504 4806,2554 4662,2604 4662,2504 "
   class="fil7 str5"
   id="path5980_1"
   transform="translate(933.55096,63.191218)" /><polygon
   style="fill:#000000;stroke:#000000;stroke-width:36.23910141;stroke-linecap:round;stroke-linejoin:round"
   transform-center-x="-1.4292276"
   randomized="0"
   rounded="0"
   flatsided="false"
   arg2="1.0471976"
   arg1="0"
   r2="3.0370266"
   r1="6.0740542"
   cy="45.85627"
   cx="49.285713"
   sides="3"
   type="star"
   points="12349,2534 12349,2434 12494,2484 12638,2534 12494,2584 12349,2634 "
   class="fil7 str5"
   id="path5980_3"
   transform="translate(4276.3409,32.69125)" /><polygon
   style="fill:#000000;stroke:#000000;stroke-width:36.23910141;stroke-linecap:round;stroke-linejoin:round"
   transform-center-x="-1.4292276"
   randomized="0"
   rounded="0"
   flatsided="false"
   arg2="1.0471976"
   arg1="0"
   r2="3.0370266"
   r1="6.0740542"
   cy="45.85627"
   cx="49.285713"
   sides="3"
   type="star"
   points="13286,1669 13235,1813 13185,1957 13135,1813 13085,1669 13185,1669 "
   class="fil7 str5"
   id="path5980_4"
   transform="translate(4269.6517,63.191184)" /><polygon
   style="fill:#000000;stroke:#000000;stroke-width:36.23910141;stroke-linecap:round;stroke-linejoin:round"
   transform-center-x="-1.4292276"
   randomized="0"
   rounded="0"
   flatsided="false"
   arg2="1.0471976"
   arg1="0"
   r2="3.0370266"
   r1="6.0740542"
   cy="45.85627"
   cx="49.285713"
   sides="3"
   type="star"
   points="15371,2387 15515,2437 15659,2487 15515,2537 15371,2587 15371,2487 "
   class="fil7 str5"
   id="path5980_5"
   transform="translate(4269.6517,63.191184)" /><circle
   style="fill:#000000;stroke:#000000;stroke-width:28.24563408;stroke-linecap:round;stroke-linejoin:round;stroke-miterlimit:4;stroke-dasharray:none;stroke-opacity:1"
   id="path3084"
   cx="14448.993"
   cy="5288.6914"
   r="60.9394" /><circle
   id="path3149"
   style="fill:#000000;stroke:#000000;stroke-width:28.24563408;stroke-linecap:round;stroke-linejoin:round;stroke-miterlimit:4;stroke-dasharray:none;stroke-opacity:1"
   cx="14976.75"
   cy="5288.6914"
   r="60.9394" /><line
   id="line3151"
   class="fil6 str3"
   x1="18728.945"
   y1="5288.6909"
   x2="14976.749"
   y2="5288.6909"
   connector-curvature="0"
   style="fill:none;stroke:#000000;stroke-width:26.48130226;stroke-linecap:round;stroke-linejoin:round" /><path
   style="fill:#afc6e9;fill-rule:evenodd;stroke:#000000;stroke-width:26.48129845"
   inkscape:connector-curvature="0"
   id="path2999"
   role="line"
   linespacing="125%"
   d="m 8042.5743,1893.6913 1715.9616,0 c 50.1356,0 90.396,52.9999 90.396,118.9999 l 0,1106 c 0,66 -40.2604,120 -90.396,120 l -1715.9616,0 c -49.3746,0 -90.3936,-54 -90.3936,-120 l 0,-1106 c 0,-66 41.019,-118.9999 90.3936,-118.9999 z"
   class="fil2 str0" /><polygon
   transform="translate(-232.57209,62.691218)"
   style="fill:#000000;fill-rule:evenodd;stroke:#000000;stroke-width:36.23910141;stroke-linecap:round;stroke-linejoin:round"
   transform-center-x="-1.4292276"
   randomized="0"
   rounded="0"
   flatsided="false"
   arg2="1.0471976"
   arg1="0"
   r2="3.0370266"
   r1="6.0740542"
   cy="45.85627"
   cx="49.285713"
   sides="3"
   type="star"
   points="7867,2504 7867,2404 8011,2454 8155,2504 8011,2554 7867,2604 "
   class="fil7 str5"
   id="path5980_2-1" /><line
   id="line3118"
   class="fil6 str0"
   x1="12475.951"
   y1="2566.6912"
   x2="13554.577"
   y2="2566.6912"
   connector-curvature="0"
   style="fill:none;stroke:#000000;stroke-width:26.48130035" /><polygon
   id="polygon3120"
   class="fil7 str5"
   points="7867,2604 7867,2504 7867,2404 8011,2454 8155,2504 8011,2554 "
   type="star"
   sides="3"
   cx="49.285713"
   cy="45.85627"
   r1="6.0740542"
   r2="3.0370266"
   arg1="0"
   arg2="1.0471976"
   flatsided="false"
   rounded="0"
   randomized="0"
   transform-center-x="-1.4292276"
   style="fill:#000000;fill-rule:evenodd;stroke:#000000;stroke-width:36.23910141;stroke-linecap:round;stroke-linejoin:round"
   transform="translate(5686.0919,62.691267)" /><line
   style="fill:none;stroke:#000000;stroke-width:26.48129845;stroke-linecap:round;stroke-linejoin:round"
   connector-curvature="0"
   y2="4973.6777"
   x2="14583.859"
   y1="5288.6914"
   x1="14976.75"
   class="fil6 str3"
   id="line3153"
   inkscape:transform-center-x="206.77581"
   inkscape:transform-center-y="-165.78955" /><g
   style="font-style:normal;font-weight:normal;font-size:413.10894775px;line-height:125%;font-family:sans-serif;letter-spacing:0px;word-spacing:0px;fill:#000000;fill-opacity:1;stroke:none;stroke-width:1px;stroke-linecap:butt;stroke-linejoin:miter;stroke-opacity:1"
   id="text3400"
   transform="translate(118.91305,56.491267)"><path
     d="m 8631.3668,2512.9272 39.1324,9.884 q -12.3045,48.2095 -44.377,73.6254 -31.8707,25.2141 -78.063,25.2141 -47.8061,0 -77.8614,-19.3644 -29.8536,-19.5662 -45.5872,-56.4798 -15.5319,-36.9135 -15.5319,-79.2733 0,-46.1924 17.549,-80.4837 17.7508,-34.4929 50.2267,-52.2437 32.6775,-17.9525 71.8099,-17.9525 44.3769,0 74.6339,22.5919 30.2571,22.5919 42.1581,63.5397 l -38.5272,9.0771 q -10.2874,-32.2741 -29.8536,-46.9992 -19.5662,-14.7251 -49.218,-14.7251 -34.0896,0 -57.0849,16.3388 -22.7936,16.3388 -32.0724,43.9735 -9.2789,27.433 -9.2789,56.6815 0,37.7204 10.8926,65.9602 11.0942,28.0382 34.2912,41.9564 23.1971,13.9182 50.2267,13.9182 32.8792,0 55.6728,-18.961 22.7936,-18.9611 30.8622,-56.2781 z"
     style="font-style:normal;font-variant:normal;font-weight:normal;font-stretch:normal;font-family:Arial;-inkscape-font-specification:Arial"
     id="path4426"
     inkscape:connector-curvature="0" /><path
     d="m 8783.6604,2703.5464 q -30.0553,-37.9221 -50.8318,-88.7539 -20.7765,-50.8318 -20.7765,-105.2944 0,-48.0078 15.532,-91.9813 18.1542,-51.0334 56.0763,-101.6635 l 26.021,0 q -24.4073,41.9564 -32.2741,59.9089 -12.3046,27.8364 -19.3645,58.0934 -8.6737,37.7204 -8.6737,75.8442 0,97.0242 60.3123,193.8466 l -26.021,0 z"
     style="font-style:normal;font-variant:normal;font-weight:normal;font-stretch:normal;font-family:Arial;-inkscape-font-specification:Arial"
     id="path4428"
     inkscape:connector-curvature="0" /><path
     d="m 8833.0801,2616.6079 0,-29.4501 136.3583,-156.5296 q -23.1971,1.2103 -40.9479,1.2103 l -87.3418,0 0,-29.4502 175.0872,0 0,24.0039 -115.9852,135.9548 -22.3902,24.8108 q 24.4073,-1.8155 45.7889,-1.8155 l 99.0413,0 0,31.2656 -189.6106,0 z"
     style="font-style:normal;font-variant:normal;font-weight:normal;font-stretch:normal;font-family:Arial;-inkscape-font-specification:Arial"
     id="path4430"
     inkscape:connector-curvature="0" /><path
     d="m 9082.5996,2703.5464 -26.021,0 q 60.3122,-96.8224 60.3122,-193.8466 0,-37.9221 -8.6736,-75.239 -6.8583,-30.2571 -19.1628,-58.0935 -7.8668,-18.1542 -32.4758,-60.514 l 26.021,0 q 37.9221,50.6301 56.0763,101.6635 15.5319,43.9735 15.5319,91.9813 0,54.4626 -20.9782,105.2944 -20.7764,50.8318 -50.63,88.7539 z"
     style="font-style:normal;font-variant:normal;font-weight:normal;font-stretch:normal;font-family:Arial;-inkscape-font-specification:Arial"
     id="path4432"
     inkscape:connector-curvature="0" /></g><path
   style="fill:#ff7f2a;fill-opacity:1;fill-rule:evenodd;stroke:#000000;stroke-width:26.52198219;stroke-linecap:round;stroke-linejoin:round;stroke-miterlimit:4;stroke-dasharray:none;stroke-opacity:1"
   d="m 11057.561,3080.1227 0,-1026.8626 921.661,0 534.771,513.4312 -534.77,513.4314 z"
   id="path3481"
   inkscape:connector-curvature="0"
   sodipodi:nodetypes="cccccc" /><g
   style="font-style:normal;font-weight:normal;font-size:340.50308228px;line-height:125%;font-family:sans-serif;letter-spacing:0px;word-spacing:0px;fill:#000000;fill-opacity:1;stroke:none;stroke-width:1px;stroke-linecap:butt;stroke-linejoin:miter;stroke-opacity:1"
   id="text4283"
   transform="translate(338.94761,56.491267)"><path
     d="m 10898.579,2385.5042 0,-243.7391 83.962,0 q 28.43,0 43.394,3.4915 20.949,4.8216 35.746,17.4574 19.286,16.2937 28.763,41.7316 9.644,25.2717 9.644,57.8589 0,27.7657 -6.485,49.2134 -6.484,21.4477 -16.626,35.5799 -10.142,13.9659 -22.279,22.1127 -11.971,7.9806 -29.096,12.1371 -16.958,4.1566 -39.071,4.1566 l -87.952,0 z m 32.255,-28.7632 52.039,0 q 24.108,0 37.742,-4.4891 13.799,-4.4891 21.946,-12.6359 11.472,-11.472 17.79,-30.7583 6.484,-19.4526 6.484,-47.0519 0,-38.2401 -12.636,-58.6903 -12.469,-20.6164 -30.425,-27.5993 -12.969,-4.9879 -41.732,-4.9879 l -51.208,0 0,186.2127 z"
     style="font-style:normal;font-variant:normal;font-weight:normal;font-stretch:normal;font-family:Arial;-inkscape-font-specification:Arial"
     id="path4442"
     inkscape:connector-curvature="0" /><path
     d="m 11117.877,2385.5042 93.606,-243.7391 34.748,0 99.757,243.7391 -36.744,0 -28.43,-73.8201 -101.919,0 -26.768,73.8201 -34.25,0 z m 70.329,-100.0893 82.632,0 -25.438,-67.5021 q -11.638,-30.7583 -17.291,-50.5434 -4.656,23.4428 -13.135,46.5531 l -26.768,71.4924 z"
     style="font-style:normal;font-variant:normal;font-weight:normal;font-stretch:normal;font-family:Arial;-inkscape-font-specification:Arial"
     id="path4444"
     inkscape:connector-curvature="0" /><path
     d="m 11546,2300.0459 32.255,8.1468 q -10.142,39.7364 -36.578,60.6853 -26.269,20.7827 -64.343,20.7827 -39.404,0 -64.177,-15.9611 -24.606,-16.1273 -37.575,-46.5532 -12.802,-30.4258 -12.802,-65.3406 0,-38.0739 14.465,-66.3383 14.631,-28.4307 41.399,-43.0617 26.934,-14.7972 59.189,-14.7972 36.578,0 61.517,18.6213 24.939,18.6212 34.748,52.3723 l -31.756,7.4817 q -8.479,-26.6018 -24.606,-38.7389 -16.128,-12.137 -40.568,-12.137 -28.098,0 -47.052,13.4671 -18.787,13.4672 -26.435,36.245 -7.648,22.6115 -7.648,46.7194 0,31.0909 8.978,54.3674 9.144,23.1104 28.264,34.5824 19.12,11.472 41.399,11.472 27.101,0 45.888,-15.6285 18.788,-15.6286 25.438,-46.3869 z"
     style="font-style:normal;font-variant:normal;font-weight:normal;font-stretch:normal;font-family:Arial;-inkscape-font-specification:Arial"
     id="path4446"
     inkscape:connector-curvature="0" /><path
     d="m 10951.949,2882.7916 q -24.773,-31.2571 -41.898,-73.1549 -17.125,-41.8979 -17.125,-86.7884 0,-39.5702 12.802,-75.8152 14.964,-42.0641 46.221,-83.7957 l 21.447,0 q -20.117,34.5824 -26.601,49.3796 -10.142,22.9441 -15.961,47.8833 -7.15,31.0908 -7.15,62.5142 0,79.9717 49.712,159.7771 l -21.447,0 z"
     style="font-style:normal;font-variant:normal;font-weight:normal;font-stretch:normal;font-family:Arial;-inkscape-font-specification:Arial"
     id="path4448"
     inkscape:connector-curvature="0" /><path
     d="m 10992.849,2811.133 0,-29.927 124.862,-156.1194 q 13.301,-16.6261 25.272,-28.9294 l -136.002,0 0,-28.7632 174.575,0 0,28.7632 -136.833,169.0877 -14.798,17.1249 155.621,0 0,28.7632 -192.697,0 z"
     style="font-style:normal;font-variant:normal;font-weight:normal;font-stretch:normal;font-family:Arial;-inkscape-font-specification:Arial"
     id="path4450"
     inkscape:connector-curvature="0" /><path
     d="m 11210.651,2692.4225 q 0,-60.6854 32.587,-94.9352 32.588,-34.4161 84.129,-34.4161 33.751,0 60.851,16.1273 27.101,16.1274 41.233,45.0568 14.299,28.7632 14.299,65.3407 0,37.0763 -14.964,66.3383 -14.963,29.2619 -42.397,44.3917 -27.433,14.9635 -59.189,14.9635 -34.416,0 -61.516,-16.6261 -27.101,-16.6261 -41.067,-45.3893 -13.966,-28.7632 -13.966,-60.8516 z m 33.252,0.4987 q 0,44.0593 23.61,69.4973 23.775,25.2717 59.521,25.2717 36.411,0 59.854,-25.6043 23.609,-25.6042 23.609,-72.6561 0,-29.7608 -10.142,-51.8736 -9.975,-22.279 -29.428,-34.416 -19.286,-12.3034 -43.394,-12.3034 -34.25,0 -59.023,23.6091 -24.607,23.4429 -24.607,78.4753 z"
     style="font-style:normal;font-variant:normal;font-weight:normal;font-stretch:normal;font-family:Arial;-inkscape-font-specification:Arial"
     id="path4452"
     inkscape:connector-curvature="0" /><path
     d="m 11486.146,2811.133 0,-243.739 32.255,0 0,100.0893 126.691,0 0,-100.0893 32.255,0 0,243.739 -32.255,0 0,-114.8865 -126.691,0 0,114.8865 -32.255,0 z"
     style="font-style:normal;font-variant:normal;font-weight:normal;font-stretch:normal;font-family:Arial;-inkscape-font-specification:Arial"
     id="path4454"
     inkscape:connector-curvature="0" /><path
     d="m 11747.01,2882.7916 -21.448,0 q 49.713,-79.8054 49.713,-159.7771 0,-31.2571 -7.15,-62.0154 -5.653,-24.9392 -15.794,-47.8833 -6.485,-14.9635 -26.769,-49.8784 l 21.448,0 q 31.257,41.7316 46.221,83.7957 12.802,36.245 12.802,75.8152 0,44.8905 -17.291,86.7884 -17.125,41.8978 -41.732,73.1549 z"
     style="font-style:normal;font-variant:normal;font-weight:normal;font-stretch:normal;font-family:Arial;-inkscape-font-specification:Arial"
     id="path4456"
     inkscape:connector-curvature="0" /></g><line
   id="line4289"
   class="fil6 str0"
   x1="9837.0703"
   y1="2566.6912"
   x2="10837.28"
   y2="2566.6912"
   connector-curvature="0"
   style="fill:none;stroke:#000000;stroke-width:26.48129845" /><polygon
   id="polygon4291"
   class="fil7 str5"
   points="8011,2454 8155,2504 8011,2554 7867,2604 7867,2504 7867,2404 "
   type="star"
   sides="3"
   cx="49.285713"
   cy="45.85627"
   r1="6.0740542"
   r2="3.0370266"
   arg1="0"
   arg2="1.0471976"
   flatsided="false"
   rounded="0"
   randomized="0"
   transform-center-x="-1.4292276"
   style="fill:#000000;fill-rule:evenodd;stroke:#000000;stroke-width:36.23910141;stroke-linecap:round;stroke-linejoin:round"
   transform="translate(2873.8804,62.691317)" /><g
   style="font-style:normal;font-weight:normal;font-size:413.10894775px;line-height:125%;font-family:sans-serif;letter-spacing:0px;word-spacing:0px;fill:#000000;fill-opacity:1;stroke:none;stroke-width:1px;stroke-linecap:butt;stroke-linejoin:miter;stroke-opacity:1"
   id="text4297"
   transform="translate(225.96507,56.491267)"><path
     d="m 9866.1247,2108.8789 q -38.5272,43.5701 -78.8699,43.5701 -24.8108,0 -40.141,-14.1199 -15.1285,-14.3217 -15.1285,-34.8964 0,-13.5148 6.8583,-46.3941 l 25.8193,-123.6503 36.5101,0 -28.6433,136.9634 q -3.6308,17.1456 -3.6308,26.6262 0,12.1028 7.2616,18.961 7.4634,6.6566 21.7851,6.6566 15.3302,0 29.8536,-7.4634 14.725,-7.4634 25.2141,-20.1714 10.6908,-12.7079 17.3474,-30.0553 4.4377,-11.0942 10.2874,-38.9306 l 19.3644,-92.5865 36.5102,0 -44.7804,214.2196 -33.6861,0 8.0685,-38.729 z"
     style="font-style:italic;font-variant:normal;font-weight:normal;font-stretch:normal;font-family:Arial;-inkscape-font-specification:Arial"
     id="path4394"
     inkscape:connector-curvature="0" /><path
     d="m 10002.685,2234.5464 q -31.6694,-69.3894 -31.6694,-142.6114 0,-48.8146 12.708,-90.771 12.9096,-42.1581 39.1324,-83.3076 17.347,-27.433 55.471,-71.0031 l 28.442,0 q -23.601,25.2142 -50.025,71.0031 -26.223,45.7889 -38.124,89.9642 -11.901,44.1752 -11.901,88.7538 0,66.5654 23.197,137.972 l -27.231,0 z"
     style="font-style:italic;font-variant:normal;font-weight:normal;font-stretch:normal;font-family:Arial;-inkscape-font-specification:Arial"
     id="path4396"
     inkscape:connector-curvature="0" /><path
     d="m 10088.211,2147.6079 61.926,-295.7118 36.309,0 -38.326,183.3575 106.505,-101.8653 48.209,0 -91.376,79.8785 55.269,134.3411 -39.939,0 -42.763,-109.9338 -44.377,38.3256 -14.927,71.6082 -36.51,0 z"
     style="font-style:italic;font-variant:normal;font-weight:normal;font-stretch:normal;font-family:Arial;-inkscape-font-specification:Arial"
     id="path4398"
     inkscape:connector-curvature="0" /><path
     d="m 10374.442,2147.6079 54.665,-262.0256 -97.024,0 7.06,-33.6862 232.777,0 -7.06,33.6862 -96.218,0 -54.664,262.0256 -39.536,0 z"
     style="font-style:italic;font-variant:normal;font-weight:normal;font-stretch:normal;font-family:Arial;-inkscape-font-specification:Arial"
     id="path4400"
     inkscape:connector-curvature="0" /><path
     d="m 10615.086,1846.8533 q 31.871,69.3894 31.871,142.4096 0,49.0164 -12.91,90.9728 -12.707,41.9563 -38.93,83.3076 -17.549,27.433 -55.471,71.0031 l -28.442,0 q 23.399,-25.4159 49.823,-71.2048 26.425,-45.789 38.124,-89.7625 11.901,-44.1752 11.901,-88.9556 0,-66.5654 -23.197,-137.7702 l 27.231,0 z"
     style="font-style:italic;font-variant:normal;font-weight:normal;font-stretch:normal;font-family:Arial;-inkscape-font-specification:Arial"
     id="path4402"
     inkscape:connector-curvature="0" /></g><g
   style="font-style:normal;font-weight:normal;font-size:413.10894775px;line-height:125%;font-family:sans-serif;letter-spacing:0px;word-spacing:0px;fill:#000000;fill-opacity:1;stroke:none;stroke-width:1px;stroke-linecap:butt;stroke-linejoin:miter;stroke-opacity:1"
   id="text4301"
   transform="translate(-225.96507,56.491267)"><path
     d="m 5344.5202,2074.7894 35.5016,3.6308 q -7.6651,26.4245 -35.2999,50.2267 -27.433,23.8021 -65.5568,23.8021 -23.8022,0 -43.7718,-10.8925 -19.7679,-11.0942 -30.257,-32.0724 -10.2874,-20.9782 -10.2874,-47.8061 0,-35.0981 16.1371,-67.9774 16.3388,-33.081 42.1581,-49.0163 25.8193,-16.1371 55.8746,-16.1371 38.3255,0 61.1191,23.8022 22.9953,23.8022 22.9953,64.9517 0,15.7336 -2.824,32.2741 l -157.7398,0 q -0.8069,6.2531 -0.8069,11.296 0,30.0553 13.7166,45.9906 13.9182,15.7337 33.8878,15.7337 18.7593,0 36.9135,-12.3046 18.1542,-12.3045 28.2399,-35.5015 z m -106.1012,-53.0506 120.2211,0 q 0.2018,-5.648 0.2018,-8.0686 0,-27.433 -13.7166,-41.9563 -13.7165,-14.7251 -35.2998,-14.7251 -23.3987,0 -42.7632,16.1371 -19.1628,16.137 -28.6433,48.6129 z"
     style="font-style:italic;font-variant:normal;font-weight:normal;font-stretch:normal;font-family:Arial;-inkscape-font-specification:Arial"
     id="path4383"
     inkscape:connector-curvature="0" /><path
     d="m 5469.9859,2234.5464 q -31.669,-69.3894 -31.669,-142.6114 0,-48.8146 12.708,-90.771 12.9096,-42.1581 39.1323,-83.3076 17.3474,-27.433 55.4712,-71.0031 l 28.4416,0 q -23.6005,25.2142 -50.0249,71.0031 -26.2227,45.7889 -38.1238,89.9642 -11.9011,44.1752 -11.9011,88.7538 0,66.5654 23.197,137.972 l -27.2313,0 z"
     style="font-style:italic;font-variant:normal;font-weight:normal;font-stretch:normal;font-family:Arial;-inkscape-font-specification:Arial"
     id="path4385"
     inkscape:connector-curvature="0" /><path
     d="m 5555.5124,2147.6079 61.926,-295.7118 36.3084,0 -38.3255,183.3575 106.5046,-101.8653 48.2095,0 -91.3762,79.8785 55.2695,134.3411 -39.9392,0 -42.7633,-109.9338 -44.3769,38.3256 -14.9268,71.6082 -36.5101,0 z"
     style="font-style:italic;font-variant:normal;font-weight:normal;font-stretch:normal;font-family:Arial;-inkscape-font-specification:Arial"
     id="path4387"
     inkscape:connector-curvature="0" /><path
     d="m 5841.7436,2147.6079 54.6643,-262.0256 -97.0241,0 7.06,-33.6862 232.7772,0 -7.06,33.6862 -96.2173,0 -54.6643,262.0256 -39.5358,0 z"
     style="font-style:italic;font-variant:normal;font-weight:normal;font-stretch:normal;font-family:Arial;-inkscape-font-specification:Arial"
     id="path4389"
     inkscape:connector-curvature="0" /><path
     d="m 6082.3877,1846.8533 q 31.8707,69.3894 31.8707,142.4096 0,49.0164 -12.9097,90.9728 -12.7079,41.9563 -38.9306,83.3076 -17.5491,27.433 -55.4712,71.0031 l -28.4416,0 q 23.3988,-25.4159 49.8232,-71.2048 26.4245,-45.789 38.1238,-89.7625 11.9011,-44.1752 11.9011,-88.9556 0,-66.5654 -23.197,-137.7702 l 27.2313,0 z"
     style="font-style:italic;font-variant:normal;font-weight:normal;font-stretch:normal;font-family:Arial;-inkscape-font-specification:Arial"
     id="path4391"
     inkscape:connector-curvature="0" /></g><g
   style="font-style:normal;font-weight:normal;font-size:413.10894775px;line-height:125%;font-family:sans-serif;letter-spacing:0px;word-spacing:0px;fill:#000000;fill-opacity:1;stroke:none;stroke-width:1px;stroke-linecap:butt;stroke-linejoin:miter;stroke-opacity:1"
   id="text4305"
   transform="translate(0,56.491267)"><path
     d="m 8379.8379,5156.7176 2.2188,-34.2913 q 11.296,3.2275 21.9868,3.2275 11.0942,0 17.9525,-5.0429 8.8754,-6.6565 19.3645,-25.0124 l 11.6993,-20.9782 -35.7032,-214.8247 35.905,0 16.137,108.32 q 4.8411,32.0724 8.2703,64.1449 l 95.8138,-172.4649 38.1238,0 -136.5599,242.6611 q -19.7679,35.5016 -35.0981,46.9992 -15.3302,11.4977 -35.2999,11.4977 -12.7079,0 -24.8107,-4.236 z"
     style="font-style:italic;font-variant:normal;font-weight:normal;font-stretch:normal;font-family:Arial;-inkscape-font-specification:Arial"
     id="path4408"
     inkscape:connector-curvature="0" /><path
     d="m 8652.9578,5160.9536 q -31.669,-69.3894 -31.669,-142.6113 0,-48.8147 12.7079,-90.7711 12.9097,-42.158 39.1324,-83.3076 17.3474,-27.433 55.4712,-71.0031 l 28.4416,0 q -23.6005,25.2142 -50.025,71.0031 -26.2227,45.789 -38.1238,89.9642 -11.9011,44.1752 -11.9011,88.7539 0,66.5654 23.1971,137.9719 l -27.2313,0 z"
     style="font-style:italic;font-variant:normal;font-weight:normal;font-stretch:normal;font-family:Arial;-inkscape-font-specification:Arial"
     id="path4410"
     inkscape:connector-curvature="0" /><path
     d="m 8738.4843,5074.0151 61.926,-295.7117 36.3084,0 -38.3256,183.3574 106.5047,-101.8652 48.2095,0 -91.3762,79.8784 55.2695,134.3411 -39.9393,0 -42.7632,-109.9337 -44.3769,38.3255 -14.9268,71.6082 -36.5101,0 z"
     style="font-style:italic;font-variant:normal;font-weight:normal;font-stretch:normal;font-family:Arial;-inkscape-font-specification:Arial"
     id="path4412"
     inkscape:connector-curvature="0" /><path
     d="m 9024.7155,5074.0151 54.6643,-262.0256 -97.0241,0 7.0599,-33.6861 232.7772,0 -7.0599,33.6861 -96.2173,0 -54.6643,262.0256 -39.5358,0 z"
     style="font-style:italic;font-variant:normal;font-weight:normal;font-stretch:normal;font-family:Arial;-inkscape-font-specification:Arial"
     id="path4414"
     inkscape:connector-curvature="0" /><path
     d="m 9265.3595,4773.2605 q 31.8707,69.3894 31.8707,142.4097 0,49.0163 -12.9097,90.9727 -12.7079,41.9564 -38.9306,83.3076 -17.5491,27.433 -55.4712,71.0031 l -28.4416,0 q 23.3988,-25.4159 49.8232,-71.2048 26.4245,-45.789 38.1238,-89.7625 11.9011,-44.1752 11.9011,-88.9556 0,-66.5654 -23.197,-137.7702 l 27.2313,0 z"
     style="font-style:italic;font-variant:normal;font-weight:normal;font-stretch:normal;font-family:Arial;-inkscape-font-specification:Arial"
     id="path4416"
     inkscape:connector-curvature="0" /></g><g
   style="font-style:normal;font-weight:normal;font-size:413.10894775px;line-height:125%;font-family:sans-serif;letter-spacing:0px;word-spacing:0px;fill:#000000;fill-opacity:1;stroke:none;stroke-width:1px;stroke-linecap:butt;stroke-linejoin:miter;stroke-opacity:1"
   id="text4309"
   transform="translate(-621.40396,56.491267)"><path
     d="m 3521.5349,2147.6079 44.7803,-214.2196 32.2742,0 -9.0771,43.7718 q 16.5405,-24.8107 32.2741,-36.7118 15.9354,-11.9011 32.4759,-11.9011 10.8925,0 26.8278,7.8668 l -14.9268,33.8879 q -9.4805,-6.8583 -20.7764,-6.8583 -19.1628,0 -39.3341,21.3816 -20.1714,21.3816 -31.669,76.8528 l -18.1542,85.9299 -34.6947,0 z"
     style="font-style:italic;font-variant:normal;font-weight:normal;font-stretch:normal;font-family:Arial;-inkscape-font-specification:Arial"
     id="path4372"
     inkscape:connector-curvature="0" /><path
     d="m 3712.3557,2234.5464 q -31.669,-69.3894 -31.669,-142.6114 0,-48.8146 12.7079,-90.771 12.9097,-42.1581 39.1324,-83.3076 17.3474,-27.433 55.4712,-71.0031 l 28.4416,0 q -23.6005,25.2142 -50.0249,71.0031 -26.2228,45.7889 -38.1238,89.9642 -11.9011,44.1752 -11.9011,88.7538 0,66.5654 23.197,137.972 l -27.2313,0 z"
     style="font-style:italic;font-variant:normal;font-weight:normal;font-stretch:normal;font-family:Arial;-inkscape-font-specification:Arial"
     id="path4374"
     inkscape:connector-curvature="0" /><path
     d="m 3797.8822,2147.6079 61.926,-295.7118 36.3084,0 -38.3256,183.3575 106.5047,-101.8653 48.2095,0 -91.3762,79.8785 55.2695,134.3411 -39.9393,0 -42.7632,-109.9338 -44.3769,38.3256 -14.9268,71.6082 -36.5101,0 z"
     style="font-style:italic;font-variant:normal;font-weight:normal;font-stretch:normal;font-family:Arial;-inkscape-font-specification:Arial"
     id="path4376"
     inkscape:connector-curvature="0" /><path
     d="m 4084.1134,2147.6079 54.6643,-262.0256 -97.0241,0 7.06,-33.6862 232.7772,0 -7.06,33.6862 -96.2172,0 -54.6644,262.0256 -39.5358,0 z"
     style="font-style:italic;font-variant:normal;font-weight:normal;font-stretch:normal;font-family:Arial;-inkscape-font-specification:Arial"
     id="path4378"
     inkscape:connector-curvature="0" /><path
     d="m 4324.7574,1846.8533 q 31.8707,69.3894 31.8707,142.4096 0,49.0164 -12.9096,90.9728 -12.7079,41.9563 -38.9307,83.3076 -17.549,27.433 -55.4712,71.0031 l -28.4415,0 q 23.3987,-25.4159 49.8232,-71.2048 26.4244,-45.789 38.1238,-89.7625 11.9011,-44.1752 11.9011,-88.9556 0,-66.5654 -23.1971,-137.7702 l 27.2313,0 z"
     style="font-style:italic;font-variant:normal;font-weight:normal;font-stretch:normal;font-family:Arial;-inkscape-font-specification:Arial"
     id="path4380"
     inkscape:connector-curvature="0" /></g><polygon
   transform="translate(-453.54435,63.191462)"
   id="polygon4325"
   class="fil7 str5"
   points="1653,2604 1653,2504 1653,2404 1797,2454 1941,2504 1797,2554 "
   type="star"
   sides="3"
   cx="49.285713"
   cy="45.85627"
   r1="6.0740542"
   r2="3.0370266"
   arg1="0"
   arg2="1.0471976"
   flatsided="false"
   rounded="0"
   randomized="0"
   transform-center-x="-1.4292276"
   style="fill:#000000;stroke:#000000;stroke-width:36.23910141;stroke-linecap:round;stroke-linejoin:round" /><path
   sodipodi:nodetypes="cccccc"
   inkscape:connector-curvature="0"
   id="path4329"
   d="m 11057.561,5802.6223 0,-1026.8626 921.661,0 534.771,513.4313 -534.77,513.4313 z"
   style="fill:#aad400;fill-opacity:1;fill-rule:evenodd;stroke:#000000;stroke-width:26.52198219;stroke-linecap:round;stroke-linejoin:round;stroke-miterlimit:4;stroke-dasharray:none;stroke-opacity:1" /><g
   style="font-style:normal;font-weight:normal;font-size:340.50308228px;line-height:125%;font-family:sans-serif;letter-spacing:0px;word-spacing:0px;fill:#000000;fill-opacity:1;stroke:none;stroke-width:1px;stroke-linecap:butt;stroke-linejoin:miter;stroke-opacity:1"
   id="text4331"
   transform="translate(501.03261,56.491267)"><path
     d="m 10730.841,5354.5693 93.605,-243.739 34.749,0 99.757,243.739 -36.744,0 -28.431,-73.82 -101.918,0 -26.768,73.82 -34.25,0 z m 70.329,-100.0892 82.631,0 -25.438,-67.5021 q -11.638,-30.7584 -17.291,-50.5435 -4.655,23.4429 -13.134,46.5532 l -26.768,71.4924 z"
     style="font-style:normal;font-variant:normal;font-weight:normal;font-stretch:normal;font-family:Arial;-inkscape-font-specification:Arial"
     id="path4435"
     inkscape:connector-curvature="0" /><path
     d="m 10985.055,5354.5693 0,-243.739 83.961,0 q 28.431,0 43.395,3.4915 20.949,4.8216 35.746,17.4574 19.286,16.2936 28.763,41.7316 9.643,25.2717 9.643,57.8589 0,27.7657 -6.484,49.2134 -6.484,21.4477 -16.626,35.5799 -10.142,13.9659 -22.279,22.1127 -11.971,7.9806 -29.096,12.1371 -16.958,4.1565 -39.071,4.1565 l -87.952,0 z m 32.254,-28.7632 52.04,0 q 24.108,0 37.741,-4.489 13.8,-4.4891 21.947,-12.6359 11.472,-11.472 17.79,-30.7583 6.484,-19.4526 6.484,-47.0519 0,-38.2401 -12.636,-58.6903 -12.47,-20.6164 -30.426,-27.5993 -12.968,-4.9879 -41.731,-4.9879 l -51.209,0 0,186.2126 z"
     style="font-style:normal;font-variant:normal;font-weight:normal;font-stretch:normal;font-family:Arial;-inkscape-font-specification:Arial"
     id="path4437"
     inkscape:connector-curvature="0" /><path
     d="m 11405.03,5269.111 32.255,8.1468 q -10.142,39.7365 -36.577,60.6854 -26.27,20.7827 -64.343,20.7827 -39.404,0 -64.177,-15.9611 -24.607,-16.1274 -37.575,-46.5532 -12.802,-30.4258 -12.802,-65.3406 0,-38.0739 14.464,-66.3383 14.631,-28.4307 41.399,-43.0617 26.935,-14.7972 59.189,-14.7972 36.578,0 61.517,18.6212 24.939,18.6213 34.749,52.3723 l -31.756,7.4818 q -8.48,-26.6018 -24.607,-38.7389 -16.127,-12.137 -40.568,-12.137 -28.098,0 -47.052,13.4671 -18.787,13.4672 -26.435,36.245 -7.648,22.6115 -7.648,46.7194 0,31.0908 8.978,54.3674 9.144,23.1103 28.264,34.5824 19.12,11.472 41.399,11.472 27.101,0 45.889,-15.6286 18.787,-15.6285 25.437,-46.3869 z"
     style="font-style:normal;font-variant:normal;font-weight:normal;font-stretch:normal;font-family:Arial;-inkscape-font-specification:Arial"
     id="path4439"
     inkscape:connector-curvature="0" /></g><path
   style="fill:#aad400;fill-opacity:1;fill-rule:evenodd;stroke:#000000;stroke-width:26.52198219;stroke-linecap:round;stroke-linejoin:round;stroke-miterlimit:4;stroke-dasharray:none;stroke-opacity:1"
   d="m 2711.8042,3080.6228 0,-1026.8626 -756.1664,0 -438.7468,513.4313 438.746,513.4313 z"
   id="path4339"
   inkscape:connector-curvature="0"
   sodipodi:nodetypes="cccccc" /><g
   style="font-style:normal;font-weight:normal;font-size:340.50308228px;line-height:125%;font-family:sans-serif;letter-spacing:0px;word-spacing:0px;fill:#000000;fill-opacity:1;stroke:none;stroke-width:1px;stroke-linecap:butt;stroke-linejoin:miter;stroke-opacity:1"
   id="text4341"
   transform="translate(-734.3865,56.491267)"><path
     d="m 2569.781,2632.5698 93.6051,-243.739 34.7486,0 99.7568,243.739 -36.7438,0 -28.4307,-73.82 -101.9181,0 -26.7681,73.82 -34.2498,0 z m 70.3285,-100.0893 82.6319,0 -25.438,-67.502 q -11.6383,-30.7584 -17.2912,-50.5435 -4.6553,23.4429 -13.1346,46.5532 l -26.7681,71.4923 z"
     style="font-style:normal;font-variant:normal;font-weight:normal;font-stretch:normal;font-family:Arial;-inkscape-font-specification:Arial"
     id="path4419"
     inkscape:connector-curvature="0" /><path
     d="m 2823.9945,2632.5698 0,-243.739 83.9619,0 q 28.4307,0 43.3942,3.4915 20.9489,4.8216 35.7462,17.4574 19.2863,16.2936 28.7632,41.7316 9.6431,25.2717 9.6431,57.8589 0,27.7657 -6.4841,49.2134 -6.4842,21.4477 -16.6262,35.5799 -10.1419,13.9659 -22.279,22.1127 -11.9708,7.9806 -29.0957,12.1371 -16.9587,4.1565 -39.0714,4.1565 l -87.9522,0 z m 32.2547,-28.7632 52.0397,0 q 24.1079,0 37.7414,-4.489 13.7996,-4.4891 21.9464,-12.6359 11.4721,-11.472 17.79,-30.7583 6.4842,-19.4526 6.4842,-47.052 0,-38.2401 -12.6359,-58.6902 -12.4696,-20.6164 -30.4258,-27.5994 -12.9684,-4.9878 -41.7316,-4.9878 l -51.2084,0 0,186.2126 z"
     style="font-style:normal;font-variant:normal;font-weight:normal;font-stretch:normal;font-family:Arial;-inkscape-font-specification:Arial"
     id="path4421"
     inkscape:connector-curvature="0" /><path
     d="m 3243.9704,2547.1115 32.2547,8.1468 q -10.1419,39.7365 -36.5775,60.6854 -26.2692,20.7827 -64.3431,20.7827 -39.4039,0 -64.1768,-15.9611 -24.6067,-16.1274 -37.5751,-46.5532 -12.8021,-30.4258 -12.8021,-65.3407 0,-38.0738 14.4648,-66.3382 14.6309,-28.4307 41.399,-43.0617 26.9343,-14.7972 59.189,-14.7972 36.5775,0 61.5167,18.6212 24.9392,18.6213 34.7486,52.3723 l -31.7559,7.4818 q -8.4793,-26.6018 -24.6067,-38.7389 -16.1273,-12.1371 -40.5677,-12.1371 -28.0982,0 -47.052,13.4672 -18.7875,13.4672 -26.4355,36.245 -7.648,22.6115 -7.648,46.7194 0,31.0908 8.9781,54.3674 9.1444,23.1103 28.2644,34.5824 19.12,11.472 41.3991,11.472 27.1005,0 45.8881,-15.6286 18.7875,-15.6285 25.4379,-46.3869 z"
     style="font-style:normal;font-variant:normal;font-weight:normal;font-stretch:normal;font-family:Arial;-inkscape-font-specification:Arial"
     id="path4423"
     inkscape:connector-curvature="0" /></g><line
   id="line4345"
   class="fil6 str0"
   x1="2711.8042"
   y1="2567.1914"
   x2="3624.9822"
   y2="2567.1914"
   connector-curvature="0"
   style="fill:none;stroke:#000000;stroke-width:26.48130035" /><polygon
   transform="matrix(1,0,0,-1,-168.82596,5072.8785)"
   id="polygon4347"
   class="fil7 str5"
   points="2483,3340 2383,3340 2433,3195 2483,3051 2534,3195 2584,3340 "
   type="star"
   sides="3"
   cx="49.285713"
   cy="45.85627"
   r1="6.0740542"
   r2="3.0370266"
   arg1="0"
   arg2="1.0471976"
   flatsided="false"
   rounded="0"
   randomized="0"
   transform-center-x="-1.4292276"
   style="fill:#000000;stroke:#000000;stroke-width:36.23910141;stroke-linecap:round;stroke-linejoin:round" /><polygon
   style="fill:#000000;stroke:#000000;stroke-width:36.23910141;stroke-linecap:round;stroke-linejoin:round"
   transform-center-x="-1.4292276"
   randomized="0"
   rounded="0"
   flatsided="false"
   arg2="1.0471976"
   arg1="0"
   r2="3.0370266"
   r1="6.0740542"
   cy="45.85627"
   cx="49.285713"
   sides="3"
   type="star"
   points="2433,3195 2483,3051 2534,3195 2584,3340 2483,3340 2383,3340 "
   class="fil7 str5"
   id="polygon4349"
   transform="matrix(1,0,0,-1,9075.8115,7796.2639)" /><polygon
   transform="matrix(1,0,0,-1,9076.3133,5073.4265)"
   id="polygon4351"
   class="fil7 str5"
   points="2483,3051 2534,3195 2584,3340 2483,3340 2383,3340 2433,3195 "
   type="star"
   sides="3"
   cx="49.285713"
   cy="45.85627"
   r1="6.0740542"
   r2="3.0370266"
   arg1="0"
   arg2="1.0471976"
   flatsided="false"
   rounded="0"
   randomized="0"
   transform-center-x="-1.4292276"
   style="fill:#000000;stroke:#000000;stroke-width:36.23910141;stroke-linecap:round;stroke-linejoin:round" /><line
   id="line4353"
   class="fil6 str4"
   x1="2314.1748"
   y1="1238.9207"
   x2="2314.1748"
   y2="1732.8784"
   connector-curvature="0"
   style="fill:none;stroke:#000000;stroke-width:26.48130226;stroke-linecap:round" /><line
   style="fill:none;stroke:#000000;stroke-width:26.48130226;stroke-linecap:round"
   connector-curvature="0"
   y2="1733.4264"
   x2="11559.312"
   y1="1239.4686"
   x1="11559.312"
   class="fil6 str4"
   id="line4355" /><line
   id="line4357"
   class="fil6 str4"
   x1="11559.312"
   y1="3962.3062"
   x2="11559.312"
   y2="4456.2637"
   connector-curvature="0"
   style="fill:none;stroke:#000000;stroke-width:26.48130226;stroke-linecap:round" /><g
   style="font-style:normal;font-weight:normal;font-size:413.10894775px;line-height:125%;font-family:sans-serif;letter-spacing:0px;word-spacing:0px;fill:#000000;fill-opacity:1;stroke:none;stroke-width:1px;stroke-linecap:butt;stroke-linejoin:miter;stroke-opacity:1"
   id="text4359"
   transform="translate(-734.3865,56.491267)"><path
     d="m 3028.7927,941.55353 0,-260.81537 -97.4276,0 0,-34.89641 234.3909,0 0,34.89641 -97.831,0 0,260.81537 -39.1323,0 z"
     style="font-style:normal;font-variant:normal;font-weight:normal;font-stretch:normal;font-family:Arial;-inkscape-font-specification:Arial"
     id="path4405"
     inkscape:connector-curvature="0" /></g><g
   style="font-style:normal;font-weight:normal;font-size:413.10894775px;line-height:125%;font-family:sans-serif;letter-spacing:0px;word-spacing:0px;fill:#000000;fill-opacity:1;stroke:none;stroke-width:1px;stroke-linecap:butt;stroke-linejoin:miter;stroke-opacity:1"
   id="text4363"
   transform="translate(338.94761,56.491267)"><path
     d="m 11200.597,941.55353 0,-260.81537 -97.427,0 0,-34.89641 234.39,0 0,34.89641 -97.831,0 0,260.81537 -39.132,0 z"
     style="font-style:normal;font-variant:normal;font-weight:normal;font-stretch:normal;font-family:Arial;-inkscape-font-specification:Arial"
     id="path4459"
     inkscape:connector-curvature="0" /></g><text
   id="text4367"
   y="3797.4507"
   x="11432.434"
   style="font-style:normal;font-weight:normal;line-height:0%;font-family:sans-serif;letter-spacing:0px;word-spacing:0px;fill:#000000;fill-opacity:1;stroke:none;stroke-width:1px;stroke-linecap:butt;stroke-linejoin:miter;stroke-opacity:1"
   xml:space="preserve"><tspan
     style="font-style:normal;font-variant:normal;font-weight:normal;font-stretch:normal;font-size:413.10894775px;line-height:1.25;font-family:Arial;-inkscape-font-specification:Arial"
     y="3797.4507"
     x="11432.434"
     id="tspan4369"
     sodipodi:role="line">T</tspan></text>

</svg>