<?xml version="1.0" encoding="UTF-8" standalone="no"?>
<!-- Creator: CorelDRAW X6 -->

<svg
   xmlns:dc="http://purl.org/dc/elements/1.1/"
   xmlns:cc="http://creativecommons.org/ns#"
   xmlns:rdf="http://www.w3.org/1999/02/22-rdf-syntax-ns#"
   xmlns:svg="http://www.w3.org/2000/svg"
   xmlns="http://www.w3.org/2000/svg"
   xmlns:sodipodi="http://sodipodi.sourceforge.net/DTD/sodipodi-0.dtd"
   xmlns:inkscape="http://www.inkscape.org/namespaces/inkscape"
   xml:space="preserve"
   width="714.89764"
   height="209.30315"
   version="1.1"
   style="fill-rule:evenodd"
   viewBox="0 0 20192.3 5911.9001"
   id="svg2985"
   inkscape:version="0.92.3pre0 (f5a6572, 2018-03-03)"
   sodipodi:docname="diagram5Opened.svg"><metadata
     id="metadata3082"><rdf:RDF><cc:Work
         rdf:about=""><dc:format>image/svg+xml</dc:format><dc:type
           rdf:resource="http://purl.org/dc/dcmitype/StillImage" /><dc:title></dc:title></cc:Work></rdf:RDF></metadata><sodipodi:namedview
     pagecolor="#ffffff"
     bordercolor="#666666"
     borderopacity="1"
     objecttolerance="10"
     gridtolerance="10"
     guidetolerance="10"
     inkscape:pageopacity="0"
     inkscape:pageshadow="2"
     inkscape:window-width="1920"
     inkscape:window-height="1017"
     id="namedview3080"
     showgrid="false"
     inkscape:zoom="1.2309637"
     inkscape:cx="83.792335"
     inkscape:cy="50.521644"
     inkscape:window-x="-8"
     inkscape:window-y="-8"
     inkscape:window-maximized="1"
     inkscape:current-layer="svg2985"
     inkscape:snap-bbox="false"
     inkscape:bbox-paths="false"
     inkscape:snap-bbox-edge-midpoints="true"
     inkscape:snap-bbox-midpoints="true"
     inkscape:document-units="mm"
     units="px"
     fit-margin-left="0.5"
     fit-margin-top="0.5"
     fit-margin-right="0.5"
     fit-margin-bottom="0.5"
     inkscape:object-nodes="true"
     inkscape:object-paths="true"
     inkscape:snap-intersection-paths="true"
     inkscape:snap-smooth-nodes="true"
     inkscape:snap-midpoints="true"
     inkscape:snap-object-midpoints="true"
     inkscape:snap-center="true" /><defs
     id="defs2987"><style
       type="text/css"
       id="style2989">
   
    .str1 {stroke:#373435;stroke-width:26.4813}
    .str0 {stroke:black;stroke-width:26.4813}
    .str4 {stroke:black;stroke-width:26.4813;stroke-linecap:round}
    .str3 {stroke:black;stroke-width:26.4813;stroke-linecap:round;stroke-linejoin:round}
    .str2 {stroke:black;stroke-width:26.5213;stroke-linecap:round;stroke-linejoin:round}
    .str5 {stroke:black;stroke-width:36.2391;stroke-linecap:round;stroke-linejoin:round}
    .fil6 {fill:none}
    .fil3 {fill:#FFF688}
    .fil7 {fill:black}
    .fil0 {fill:#5FD38D}
    .fil2 {fill:#AFC6E9}
    .fil5 {fill:#E6E6E6}
    .fil4 {fill:#FFAAAA}
    .fil1 {fill:black;fill-rule:nonzero}
   
  </style></defs><path
     style="fill:#5fd38d;stroke:#000000;stroke-width:26.48130035"
     inkscape:connector-curvature="0"
     id="path2993"
     d="m 12856.301,1385.7696 2259,0 c 66,0 119,53 119,119 l 0,1107 c 0,65 -53,119 -119,119 l -2259,0 c -66,0 -119,-54 -119,-119 l 0,-1107 c 0,-66 53,-119 119,-119 z"
     class="fil0 str0" /><path
     style="fill:#000000;fill-rule:nonzero"
     inkscape:connector-curvature="0"
     d="m 2057.0519,1716.7695 54,-257 39,0 -12,53 c 14,-20 27,-34 39,-44 13,-9 26,-14 39,-14 9,0 20,3 32,9 l -18,41 c -7,-6 -16,-8 -24,-8 -16,0 -32,8 -48,25 -16,17 -29,48 -38,92 l -21,103 -42,0 z"
     class="fil1"
     id="text2999" /><path
     style="fill:#000000;fill-rule:nonzero"
     inkscape:connector-curvature="0"
     d="m 2285.0519,1820.7695 c -26,-56 -39,-112 -39,-171 0,-39 6,-75 16,-108 10,-34 26,-67 47,-100 13,-22 36,-50 66,-85 l 34,0 c -19,20 -39,49 -60,85 -21,37 -36,72 -46,108 -9,35 -14,70 -14,106 0,53 9,108 28,165 l -32,0 z"
     class="fil1"
     id="path3018" /><path
     style="fill:#000000;fill-rule:nonzero"
     inkscape:connector-curvature="0"
     d="m 2488.0519,1681.7695 -7,35 c -11,3 -21,4 -31,4 -17,0 -31,-4 -41,-12 -8,-7 -12,-16 -12,-27 0,-5 2,-18 7,-39 l 31,-149 -35,0 7,-34 35,0 13,-62 50,-30 -20,92 43,0 -7,34 -43,0 -29,142 c -4,18 -6,29 -6,32 0,6 2,10 5,12 3,3 7,4 14,4 10,0 18,-1 26,-2 z"
     class="fil1"
     id="path3020" /><path
     style="fill:#000000;fill-rule:nonzero"
     inkscape:connector-curvature="0"
     d="m 2605.0519,1356.7695 c 25,56 38,112 38,170 0,40 -5,76 -16,109 -10,34 -25,67 -46,100 -14,22 -36,50 -67,85 l -34,0 c 19,-20 39,-49 60,-85 21,-37 36,-73 46,-108 9,-35 14,-70 14,-106 0,-53 -9,-108 -28,-165 l 33,0 z"
     class="fil1"
     id="path3022" /><g
     id="g4245"
     transform="translate(169.4738,-403.25445)"><path
       id="text3007"
       class="fil1"
       d="m 15865.479,2219.0242 3,-42 c 9,3 17,4 26,4 9,0 16,-2 21,-6 8,-5 15,-15 24,-30 l 14,-25 -43,-257 43,0 19,129 c 4,26 7,51 10,77 l 115,-206 45,0 -163,291 c -16,28 -30,47 -42,56 -12,9 -26,14 -42,14 -10,0 -20,-2 -30,-5 z"
       inkscape:connector-curvature="0"
       style="fill:#000000;fill-rule:nonzero" /><path
       id="path3032"
       class="fil1"
       d="m 16192.479,2224.0242 c -26,-56 -38,-112 -38,-171 0,-39 5,-75 15,-108 10,-34 26,-67 47,-100 14,-22 36,-50 66,-85 l 34,0 c -19,20 -39,49 -60,85 -21,37 -36,72 -46,108 -9,35 -14,70 -14,106 0,53 10,108 28,165 l -32,0 z"
       inkscape:connector-curvature="0"
       style="fill:#000000;fill-rule:nonzero" /><path
       id="path3034"
       class="fil1"
       d="m 16395.479,2085.0242 -7,35 c -10,3 -21,4 -30,4 -18,0 -32,-4 -42,-12 -7,-7 -11,-16 -11,-27 0,-5 2,-18 6,-39 l 31,-149 -35,0 7,-34 35,0 13,-62 50,-30 -20,92 43,0 -7,34 -42,0 -30,142 c -4,18 -6,29 -6,32 0,6 2,10 5,12 3,3 8,4 14,4 10,0 19,-1 26,-2 z"
       inkscape:connector-curvature="0"
       style="fill:#000000;fill-rule:nonzero" /><path
       id="path3036"
       class="fil1"
       d="m 16512.479,1760.0242 c 25,56 38,112 38,170 0,40 -5,76 -15,109 -10,34 -26,67 -47,100 -14,22 -36,50 -66,85 l -35,0 c 19,-20 39,-49 60,-85 21,-37 36,-73 46,-108 9,-35 14,-70 14,-106 0,-53 -9,-108 -28,-165 l 33,0 z"
       inkscape:connector-curvature="0"
       style="fill:#000000;fill-rule:nonzero" /></g><g
     id="g4251"
     transform="translate(169.4738,-451.93015)"><path
       id="text3011"
       class="fil1"
       d="m 11710.022,2120.1999 c -31,34 -62,51 -95,51 -19,0 -35,-5 -48,-16 -12,-12 -18,-26 -18,-42 0,-11 3,-29 9,-55 l 34,-149 44,0 -38,167 c -3,13 -4,24 -4,32 0,9 3,16 9,20 6,5 14,8 26,8 12,0 25,-3 36,-9 12,-6 23,-14 31,-24 9,-10 16,-22 21,-36 4,-8 8,-24 13,-46 l 24,-112 43,0 -56,257 -41,0 10,-46 z"
       inkscape:connector-curvature="0"
       style="fill:#000000;fill-rule:nonzero" /><path
       id="path3039"
       class="fil1"
       d="m 11873.022,2272.6999 c -26,-56 -38,-112 -38,-171 0,-39 5,-75 15,-108 10,-34 26,-67 47,-100 14,-22 36,-50 66,-85 l 34,0 c -19,20 -39,49 -60,85 -21,37 -36,72 -46,108 -9,35 -14,70 -14,106 0,53 10,108 28,165 l -32,0 z"
       inkscape:connector-curvature="0"
       style="fill:#000000;fill-rule:nonzero" /><path
       id="path3041"
       class="fil1"
       d="m 12076.022,2178.1999 -7,35 c -10,3 -21,4 -30,4 -18,0 -32,-4 -42,-12 -7,-7 -11,-16 -11,-27 0,-5 2,-18 6,-39 l 31,-149 -35,0 7,-34 35,0 13,-62 50,-30 -20,92 43,0 -7,34 -42,0 -30,142 c -4,18 -6,29 -6,32 0,6 2,10 5,12 3,3 8,4 14,4 10,0 19,-1 26,-2 z"
       inkscape:connector-curvature="0"
       style="fill:#000000;fill-rule:nonzero" /><path
       id="path3043"
       class="fil1"
       d="m 12193.022,1808.6999 c 25,56 38,112 38,170 0,40 -5,76 -15,109 -10,34 -26,67 -47,100 -14,22 -36,50 -66,85 l -35,0 c 19,-20 39,-49 60,-85 21,-37 36,-73 46,-108 9,-35 14,-70 14,-106 0,-53 -9,-108 -28,-165 l 33,0 z"
       inkscape:connector-curvature="0"
       style="fill:#000000;fill-rule:nonzero" /></g><path
     style="fill:#000000;fill-rule:nonzero"
     inkscape:connector-curvature="0"
     d="m 5192.0519,1629.7695 43,4 c -6,21 -21,41 -42,60 -22,19 -49,28 -79,28 -19,0 -37,-4 -53,-13 -15,-8 -28,-21 -36,-38 -8,-17 -12,-36 -12,-57 0,-28 6,-55 19,-81 13,-27 30,-46 51,-59 20,-13 43,-19 67,-19 30,0 55,10 73,28 18,19 27,45 27,78 0,12 -1,25 -3,38 l -189,0 c -1,5 -1,10 -1,14 0,24 5,42 16,55 11,13 25,19 41,19 15,0 30,-5 44,-15 15,-10 26,-24 34,-42 z m -127,-64 144,0 c 0,-5 0,-8 0,-10 0,-22 -5,-38 -16,-50 -11,-12 -25,-17 -43,-17 -18,0 -35,6 -51,19 -15,13 -27,32 -34,58 z"
     class="fil1"
     id="text3015" /><path
     style="fill:#000000;fill-rule:nonzero"
     inkscape:connector-curvature="0"
     d="m 5341.0519,1820.7695 c -25,-56 -38,-112 -38,-171 0,-39 5,-75 16,-108 10,-34 25,-67 47,-100 13,-22 35,-50 66,-85 l 34,0 c -19,20 -39,49 -60,85 -21,37 -36,72 -46,108 -9,35 -14,70 -14,106 0,53 9,108 28,165 l -33,0 z"
     class="fil1"
     id="path3046" /><path
     style="fill:#000000;fill-rule:nonzero"
     inkscape:connector-curvature="0"
     d="m 5545.0519,1726.2695 -7,35 c -11,3 -21,4 -31,4 -17,0 -31,-4 -41,-12 -8,-7 -12,-16 -12,-27 0,-5 2,-18 7,-39 l 31,-149 -35,0 7,-34 35,0 13,-62 50,-30 -20,92 43,0 -7,34 -43,0 -29,142 c -4,18 -6,29 -6,32 0,6 2,10 4,12 3,3 8,4 15,4 10,0 18,-1 26,-2 z"
     class="fil1"
     id="path3048" /><path
     style="fill:#000000;fill-rule:nonzero"
     inkscape:connector-curvature="0"
     d="m 5662.0519,1356.7695 c 25,56 38,112 38,170 0,40 -5,76 -16,109 -10,34 -25,67 -46,100 -14,22 -36,50 -67,85 l -34,0 c 19,-20 39,-49 60,-85 21,-37 36,-73 46,-108 9,-35 14,-70 14,-106 0,-53 -10,-108 -28,-165 l 33,0 z"
     class="fil1"
     id="path3050" /><polygon
     style="fill:#ffaaaa;stroke:#000000;stroke-width:26.52129936;stroke-linecap:round;stroke-linejoin:round"
     transform-center-x="-6.1063678"
     randomized="0"
     rounded="0"
     flatsided="false"
     arg2="1.0471976"
     arg1="0"
     r2="18.947092"
     r1="37.894188"
     cy="502.33411"
     cx="128.79445"
     sides="3"
     type="star"
     role="line"
     linespacing="125%"
     points="6211,2503 5595,2779 4979,3055 4979,2503 4979,1952 5595,2228 "
     class="fil4 str2"
     id="path5408"
     transform="translate(1165.0104,-444.73024)" /><polygon
     style="fill:#000000;fill-rule:nonzero"
     points="5206,2648 5206,2359 5245,2359 5245,2502 5388,2359 5440,2359 5319,2476 5445,2648 5395,2648 5292,2502 5245,2548 5245,2648 "
     class="fil1"
     id="text3019"
     transform="translate(1165.0104,-444.73024)" /><path
     style="fill:#e6e6e6;stroke:#000000;stroke-width:26.48130035"
     inkscape:connector-curvature="0"
     type="arc"
     cx="535.88593"
     cy="513.95087"
     rx="15.152288"
     ry="15.152288"
     d="m 4663.0519,2057.7695 c 0,282 -228,510 -509,510 -282,0 -510,-228 -510,-510 0,-281 228,-509 510,-509 281,0 509,228 509,509 z"
     class="fil5 str0"
     id="path3822" /><line
     style="fill:none;stroke:#000000;stroke-width:26.48130226"
     connector-curvature="0"
     y2="2058.2703"
     x2="8092.5894"
     y1="2058.2703"
     x1="7376.0103"
     class="fil6 str0"
     id="path3824" /><line
     style="fill:none;stroke:#000000;stroke-width:26.48129845"
     connector-curvature="0"
     y2="2057.7703"
     x2="17871.359"
     y1="2057.7703"
     x1="15234.303"
     class="fil6 str0"
     id="path4270" /><line
     style="fill:none;stroke:#000000;stroke-width:26.48130035;stroke-linecap:round;stroke-linejoin:round"
     connector-curvature="0"
     y2="4780.27"
     x2="4154.0518"
     y1="4780.27"
     x1="10854.061"
     class="fil6 str3"
     id="path4276" /><line
     style="fill:none;stroke:#000000;stroke-width:26.48130035;stroke-linecap:round;stroke-linejoin:round"
     connector-curvature="0"
     y2="2057.7703"
     x2="16951.49"
     y1="4780.27"
     x1="16951.49"
     class="fil6 str3"
     id="path4278" /><line
     style="fill:none;stroke:#000000;stroke-width:26.48130035;stroke-linecap:round"
     connector-curvature="0"
     y2="4780.77"
     x2="4154.0518"
     y1="2621.7705"
     x1="4154.0518"
     class="fil6 str4"
     id="path4646" /><polygon
     style="fill:#000000;fill-rule:nonzero"
     points="2169,2599 2135,2599 2135,2520 2057,2520 2057,2486 2135,2486 2135,2408 2169,2408 2169,2486 2247,2486 2247,2520 2169,2520 "
     class="fil1"
     id="text5390"
     transform="translate(1671.0519,-445.23024)" /><polygon
     style="fill:#000000;fill-rule:nonzero"
     points="2538,2861 2428,2861 2428,2825 2538,2825 "
     class="fil1"
     id="text5394"
     transform="translate(1671.0519,-445.23024)" /><line
     style="fill:none;stroke:#000000;stroke-width:26.48130035"
     connector-curvature="0"
     y2="2058.7705"
     x2="5906.1724"
     y1="2058.7705"
     x1="4667.3589"
     class="fil6 str0"
     id="path5410" /><line
     style="fill:none;stroke:#000000;stroke-width:26.48130035"
     connector-curvature="0"
     y2="2058.7705"
     x2="3590.0515"
     y1="2058.7705"
     x1="1671.0516"
     class="fil6 str0"
     id="path5412" /><polygon
     style="fill:#000000;stroke:#000000;stroke-width:36.23910141;stroke-linecap:round;stroke-linejoin:round"
     transform-center-x="-1.4292276"
     randomized="0"
     rounded="0"
     flatsided="false"
     arg2="1.0471976"
     arg1="0"
     r2="3.0370266"
     r1="6.0740542"
     cy="45.85627"
     cx="49.285713"
     sides="3"
     type="star"
     points="1797,2454 1941,2504 1797,2554 1653,2604 1653,2504 1653,2404 "
     class="fil7 str5"
     id="path5980"
     transform="translate(1671.0519,-445.23024)" /><polygon
     style="fill:#000000;stroke:#000000;stroke-width:36.23910141;stroke-linecap:round;stroke-linejoin:round"
     transform-center-x="-1.4292276"
     randomized="0"
     rounded="0"
     flatsided="false"
     arg2="1.0471976"
     arg1="0"
     r2="3.0370266"
     r1="6.0740542"
     cy="45.85627"
     cx="49.285713"
     sides="3"
     type="star"
     points="2433,3195 2483,3051 2534,3195 2584,3340 2483,3340 2383,3340 "
     class="fil7 str5"
     id="path5980_0"
     transform="translate(1671.0519,-445.23024)" /><polygon
     style="fill:#000000;stroke:#000000;stroke-width:36.23910141;stroke-linecap:round;stroke-linejoin:round"
     transform-center-x="-1.4292276"
     randomized="0"
     rounded="0"
     flatsided="false"
     arg2="1.0471976"
     arg1="0"
     r2="3.0370266"
     r1="6.0740542"
     cy="45.85627"
     cx="49.285713"
     sides="3"
     type="star"
     points="4662,2604 4662,2504 4662,2404 4806,2454 4950,2504 4806,2554 "
     class="fil7 str5"
     id="path5980_1"
     transform="translate(1162.6302,-445.23024)" /><polygon
     style="fill:#000000;stroke:#000000;stroke-width:36.23910141;stroke-linecap:round;stroke-linejoin:round"
     transform-center-x="-1.4292276"
     randomized="0"
     rounded="0"
     flatsided="false"
     arg2="1.0471976"
     arg1="0"
     r2="3.0370266"
     r1="6.0740542"
     cy="45.85627"
     cx="49.285713"
     sides="3"
     type="star"
     points="15371,2387 15515,2437 15659,2487 15515,2537 15371,2587 15371,2487 "
     class="fil7 str5"
     id="path5980_5"
     transform="translate(2428.3567,-429.2302)" /><circle
     style="fill:#000000;stroke:#000000;stroke-width:28.24563408;stroke-linecap:round;stroke-linejoin:round;stroke-miterlimit:4;stroke-dasharray:none;stroke-opacity:1"
     id="path3084"
     cx="10890.048"
     cy="4780.2705"
     r="60.9394" /><circle
     id="path3149"
     style="fill:#000000;stroke:#000000;stroke-width:28.24563408;stroke-linecap:round;stroke-linejoin:round;stroke-miterlimit:4;stroke-dasharray:none;stroke-opacity:1"
     cx="11417.805"
     cy="4780.2705"
     r="60.9394" /><line
     id="line3151"
     class="fil6 str3"
     x1="16951.49"
     y1="4780.27"
     x2="11417.805"
     y2="4780.27"
     connector-curvature="0"
     style="fill:none;stroke:#000000;stroke-width:26.48130417;stroke-linecap:round;stroke-linejoin:round" /><path
     style="fill:#afc6e9;fill-rule:evenodd;stroke:#000000;stroke-width:26.48129845"
     inkscape:connector-curvature="0"
     id="path2999"
     role="line"
     linespacing="125%"
     d="m 8537.589,1385.2696 2259,0 c 66,0 119,52.9999 119,118.9999 l 0,1106 c 0,66 -53,120 -119,120 l -2259,0 c -65,0 -119,-54 -119,-120 l 0,-1106 c 0,-66 54,-118.9999 119,-118.9999 z"
     class="fil2 str0" /><path
     style="fill:#000000;fill-rule:nonzero"
     inkscape:connector-curvature="0"
     d="m 9520.5894,2060.2695 38,10 c -8,31 -22,55 -43,72 -21,16 -46,25 -76,25 -31,0 -57.0002,-7 -76.0002,-19 -20,-13 -34,-31 -45,-55 -10,-25 -15,-50 -15,-78 0,-30 6,-56 17,-79 12,-22 28,-39 49,-51 22,-11 45.0002,-17 70.0002,-17 29,0 53,7 73,22 20,15 33,35 41,62 l -37,9 c -7,-21 -17,-36 -29,-46 -13,-10 -29,-14 -48,-14 -23,0 -41.0002,5 -56.0002,16 -15,10 -25,25 -31,42 -6,18 -9,37 -9,56 0,24 3,46 10,64 7,19 19,32 34,41 15,9 31.0002,14 48.0002,14 22,0 40,-6 55,-19 14,-12 24,-30 30,-55 z"
     class="fil1"
     id="text2991" /><path
     style="fill:#000000;fill-rule:nonzero"
     inkscape:connector-curvature="0"
     d="m 9669.5894,2246.2695 c -20,-24 -36,-53 -50,-86 -13,-33 -20,-68 -20,-103 0,-31 5,-61 15,-90 12,-33 30,-66 55,-99 l 25,0 c -16,27 -26,47 -31,59 -8,18 -15,36 -19,56 -6,25 -9,49 -9,74 0,63 20,126 59,189 l -25,0 z"
     class="fil1"
     id="path3002" /><path
     style="fill:#000000;fill-rule:nonzero"
     inkscape:connector-curvature="0"
     d="m 9721.5894,2099.2695 35,-5 c 2,14 8,24 17,32 9,7 21,11 37,11 17,0 29,-3 37,-10 8,-6 12,-14 12,-23 0,-8 -4,-15 -11,-19 -5,-3 -17,-7 -36,-12 -26,-7 -44,-12 -54,-17 -10,-5 -18,-11 -23,-20 -5,-8 -8,-18 -8,-28 0,-9 2,-18 7,-26 4,-8 10,-14 17,-20 5,-4 13,-7 22,-10 10,-3 20,-4 31,-4 16,0 31,2.0001 43,7 13,5 22,11 28,19 6,8 10,19 12,33 l -35,5 c -1,-11 -6,-20 -13,-26 -8,-6 -19,-9 -32,-9 -17,0 -28,3 -35,8 -7,5 -11,12 -11,19 0,4 2,9 5,12 3,4 7,7 13,10 4,0.9999 14,4 32,9 25,6 42,12 52,16 10,4 18,11 23,19 6,8 9,18 9,30 0,12 -3,23 -10,33 -7,11 -17,19 -30,25 -13,5 -28,8 -44,8 -28,0 -48,-6 -63,-17 -14,-11 -23,-28 -27,-50 z"
     class="fil1"
     id="path3004" /><path
     style="fill:#000000;fill-rule:nonzero"
     inkscape:connector-curvature="0"
     d="m 9960.5894,2246.2695 -25,0 c 39,-63 59,-126 59,-189 0,-24 -3,-49 -9,-73 -4,-20 -10,-39 -18,-57 -5,-12 -16,-31 -32,-59 l 25,0 c 25,33 42.9996,66 54.9996,99 10,29 15,59 15,90 0,35 -7,70 -20,103 -13.9996,33 -29.9996,62 -49.9996,86 z"
     class="fil1"
     id="path3006" /><polygon
     transform="translate(225.58939,-445.73017)"
     style="fill:#000000;fill-rule:evenodd;stroke:#000000;stroke-width:36.23910141;stroke-linecap:round;stroke-linejoin:round"
     transform-center-x="-1.4292276"
     randomized="0"
     rounded="0"
     flatsided="false"
     arg2="1.0471976"
     arg1="0"
     r2="3.0370266"
     r1="6.0740542"
     cy="45.85627"
     cx="49.285713"
     sides="3"
     type="star"
     points="7867,2404 8011,2454 8155,2504 8011,2554 7867,2604 7867,2504 "
     class="fil7 str5"
     id="path5980_2-1" /><line
     id="line3118"
     class="fil6 str0"
     x1="10915.588"
     y1="2057.7703"
     x2="12419.188"
     y2="2057.7703"
     connector-curvature="0"
     style="fill:none;stroke:#000000;stroke-width:26.48130035" /><polygon
     id="polygon3120"
     class="fil7 str5"
     points="7867,2604 7867,2504 7867,2404 8011,2454 8155,2504 8011,2554 "
     type="star"
     sides="3"
     cx="49.285713"
     cy="45.85627"
     r1="6.0740542"
     r2="3.0370266"
     arg1="0"
     arg2="1.0471976"
     flatsided="false"
     rounded="0"
     randomized="0"
     transform-center-x="-1.4292276"
     style="fill:#000000;fill-rule:evenodd;stroke:#000000;stroke-width:36.23910141;stroke-linecap:round;stroke-linejoin:round"
     transform="translate(4552.1879,-446.23017)" /><line
     style="fill:none;stroke:#000000;stroke-width:26.48129845;stroke-linecap:round;stroke-linejoin:round"
     connector-curvature="0"
     y2="4465.2568"
     x2="11024.914"
     y1="4780.2705"
     x1="11417.805"
     class="fil6 str3"
     id="line3153"
     inkscape:transform-center-x="206.77581"
     inkscape:transform-center-y="-165.78955" /><g
     style="font-style:normal;font-weight:normal;font-size:409.38439941px;line-height:125%;font-family:sans-serif;letter-spacing:0px;word-spacing:0px;fill:#000000;fill-opacity:1;fill-rule:evenodd;stroke:none;stroke-width:1px;stroke-linecap:butt;stroke-linejoin:miter;stroke-opacity:1"
     id="text4200"
     transform="translate(734.3815,-451.9305)"><g
       id="g4204"><path
         inkscape:connector-curvature="0"
         id="path4233"
         style="font-style:italic;font-variant:normal;font-weight:normal;font-stretch:normal;font-family:Arial;-inkscape-font-specification:'Arial Italic'"
         d="m 12806.154,2616.1443 38.579,-184.303 -32.383,0 5.797,-27.9852 32.383,0 6.197,-30.1841 q 4.798,-22.5881 9.795,-32.5829 5.197,-9.9947 16.591,-16.3913 11.594,-6.5965 31.384,-6.5965 13.792,0 39.979,5.7969 l -6.597,31.5834 q -18.39,-4.7975 -30.784,-4.7975 -10.594,0 -16.191,5.3971 -5.397,5.1973 -9.395,24.9869 l -4.798,22.788 40.379,0 -5.797,27.9852 -40.379,0 -38.579,184.303 -36.181,0 z" /><path
         inkscape:connector-curvature="0"
         id="path4235"
         style="font-style:italic;font-variant:normal;font-weight:normal;font-stretch:normal;font-family:Arial;-inkscape-font-specification:'Arial Italic'"
         d="m 12967.069,2702.2989 q -31.384,-68.7638 -31.384,-141.3256 0,-48.3745 12.594,-89.9526 12.793,-41.778 38.779,-82.5565 17.191,-27.1857 54.971,-70.3629 l 28.186,0 q -23.388,24.9868 -49.574,70.3629 -25.987,45.3761 -37.78,89.153 -11.794,43.777 -11.794,87.9537 0,65.9653 22.988,136.728 l -26.986,0 z" /><path
         inkscape:connector-curvature="0"
         id="path4237"
         style="font-style:italic;font-variant:normal;font-weight:normal;font-stretch:normal;font-family:Arial;-inkscape-font-specification:'Arial Italic'"
         d="m 13525.675,2577.7645 q -38.18,43.1773 -78.159,43.1773 -24.587,0 -39.779,-13.9927 -14.992,-14.1925 -14.992,-34.5818 0,-13.3929 6.797,-45.9757 l 25.586,-122.5355 36.181,0 -28.385,135.7285 q -3.598,16.9911 -3.598,26.3861 0,11.9937 7.196,18.7901 7.396,6.5965 21.589,6.5965 15.192,0 29.584,-7.3961 14.593,-7.3961 24.987,-19.9894 10.594,-12.5934 17.191,-29.7844 4.398,-10.9942 10.195,-38.5796 l 19.19,-91.7517 36.18,0 -44.376,212.2882 -33.383,0 7.996,-38.3798 z" /><path
         inkscape:connector-curvature="0"
         id="path4239"
         style="font-style:italic;font-variant:normal;font-weight:normal;font-stretch:normal;font-family:Arial;-inkscape-font-specification:'Arial Italic'"
         d="m 13287.9,2616.1443 8.595,-40.9784 41.179,0 -7.396,35.7811 q -6.797,32.1831 -21.189,47.1752 -14.193,14.9921 -33.582,17.1909 l 3.398,-15.7917 q 23.787,-6.5965 31.383,-43.3771 l -22.388,0 z" /><path
         inkscape:connector-curvature="0"
         id="path4241"
         style="font-style:italic;font-variant:normal;font-weight:normal;font-stretch:normal;font-family:Arial;-inkscape-font-specification:'Arial Italic'"
         d="m 13049.925,2698.1011 2.199,-33.9821 q 11.194,3.1983 21.788,3.1983 10.994,0 17.791,-4.9973 8.795,-6.5966 19.19,-24.787 l 11.594,-20.789 -35.382,-212.8879 35.582,0 15.991,107.3435 q 4.798,31.7832 8.196,63.5665 l 94.95,-170.91 37.78,0 -135.329,240.4733 q -19.589,35.1815 -34.781,46.5755 -15.192,11.394 -34.982,11.394 -12.593,0 -24.587,-4.1978 z" /><path
         inkscape:connector-curvature="0"
         id="path4243"
         style="font-style:italic;font-variant:normal;font-weight:normal;font-stretch:normal;font-family:Arial;-inkscape-font-specification:'Arial Italic'"
         d="m 13665.101,2318.1013 q 31.584,68.7637 31.584,141.1256 0,48.5744 -12.794,90.1525 -12.593,41.5782 -38.579,82.5566 -17.391,27.1857 -54.971,70.3629 l -28.185,0 q 23.187,-25.1867 49.374,-70.5628 26.186,-45.3761 37.78,-88.9532 11.793,-43.7769 11.793,-88.1536 0,-65.9652 -22.987,-136.528 l 26.985,0 z" /></g></g></svg>