<?xml version="1.0" encoding="UTF-8" standalone="no"?>
<!-- Creator: CorelDRAW X6 -->

<svg
   xmlns:dc="http://purl.org/dc/elements/1.1/"
   xmlns:cc="http://creativecommons.org/ns#"
   xmlns:rdf="http://www.w3.org/1999/02/22-rdf-syntax-ns#"
   xmlns:svg="http://www.w3.org/2000/svg"
   xmlns="http://www.w3.org/2000/svg"
   xmlns:sodipodi="http://sodipodi.sourceforge.net/DTD/sodipodi-0.dtd"
   xmlns:inkscape="http://www.inkscape.org/namespaces/inkscape"
   xml:space="preserve"
   width="714.89764"
   height="209.30315"
   version="1.1"
   style="fill-rule:evenodd"
   viewBox="0 0 20192.3 5911.9001"
   id="svg2985"
   inkscape:version="0.92.3pre0 (f5a6572, 2018-03-03)"
   sodipodi:docname="diagram2Closed.svg"><metadata
   id="metadata3082"><rdf:RDF><cc:Work
       rdf:about=""><dc:format>image/svg+xml</dc:format><dc:type
         rdf:resource="http://purl.org/dc/dcmitype/StillImage" /><dc:title></dc:title></cc:Work></rdf:RDF></metadata><sodipodi:namedview
   pagecolor="#ffffff"
   bordercolor="#666666"
   borderopacity="1"
   objecttolerance="10"
   gridtolerance="10"
   guidetolerance="10"
   inkscape:pageopacity="0"
   inkscape:pageshadow="2"
   inkscape:window-width="1920"
   inkscape:window-height="1017"
   id="namedview3080"
   showgrid="false"
   inkscape:zoom="1.7408456"
   inkscape:cx="396.29399"
   inkscape:cy="90.023002"
   inkscape:window-x="-8"
   inkscape:window-y="-8"
   inkscape:window-maximized="1"
   inkscape:current-layer="svg2985"
   inkscape:snap-bbox="false"
   inkscape:bbox-paths="false"
   inkscape:snap-bbox-edge-midpoints="true"
   inkscape:snap-bbox-midpoints="true"
   inkscape:document-units="mm"
   units="px"
   fit-margin-left="0.5"
   fit-margin-top="0.5"
   fit-margin-right="0.5"
   fit-margin-bottom="0.5"
   inkscape:object-nodes="true"
   inkscape:object-paths="true"
   inkscape:snap-intersection-paths="true"
   inkscape:snap-smooth-nodes="true"
   inkscape:snap-midpoints="true"
   inkscape:snap-object-midpoints="true"
   inkscape:snap-center="true" />
 <defs
   id="defs2987">
  <style
   type="text/css"
   id="style2989">
   
    .str1 {stroke:#373435;stroke-width:26.4813}
    .str0 {stroke:black;stroke-width:26.4813}
    .str4 {stroke:black;stroke-width:26.4813;stroke-linecap:round}
    .str3 {stroke:black;stroke-width:26.4813;stroke-linecap:round;stroke-linejoin:round}
    .str2 {stroke:black;stroke-width:26.5213;stroke-linecap:round;stroke-linejoin:round}
    .str5 {stroke:black;stroke-width:36.2391;stroke-linecap:round;stroke-linejoin:round}
    .fil6 {fill:none}
    .fil3 {fill:#FFF688}
    .fil7 {fill:black}
    .fil0 {fill:#5FD38D}
    .fil2 {fill:#AFC6E9}
    .fil5 {fill:#E6E6E6}
    .fil4 {fill:#FFAAAA}
    .fil1 {fill:black;fill-rule:nonzero}
   
  </style>
 
  
  
  
  
  
  
  
  
  
  
  
  
  
  
  
  
  
  
  
  
  
  
  
  
  
  
  
  
  
  
  
  
  
  
  
  
  
  
  
  
  
  
  
  
  
  
  
  
  
  
  
  
  
  
  
  
  
  
  
  
  
  
  
  
 </defs>
 
<g
   id="g3122"
   transform="translate(-762.63247,3.2146073e-5)"><path
     class="fil0 str0"
     d="m 12884.55,1837.7 2259,0 c 66,0 119,53 119,119 l 0,1107 c 0,65 -53,119 -119,119 l -2259,0 c -66,0 -119,-54 -119,-119 l 0,-1107 c 0,-66 53,-119 119,-119 z"
     id="path2993"
     inkscape:connector-curvature="0"
     style="fill:#5fd38d;stroke:#000000;stroke-width:26.48130035" /><path
     id="text2987"
     class="fil1"
     d="m 13784.55,2540.7 0,-34 122,0 0,108 c -18,14 -38,26 -58,33 -20,8 -40,12 -61,12 -29,0 -54,-6 -78,-19 -23,-12 -40,-29 -52,-52 -12,-23 -18,-49 -18,-77 0,-28 6,-55 18,-79 12,-24 29,-42 51,-54 22,-12 47,-18 76,-18 21,0 40,3 56,10 17,7 31,16 40,28 10,13 17,28 22,48 l -35,9 c -4,-14 -9,-26 -16,-35 -6,-8 -15,-15 -27,-20 -12,-5 -25,-7 -40,-7 -17,0 -32,2 -45,8 -13,5 -23,12 -31,21 -8,8 -14,18 -18,28 -7,18 -11,38 -11,59 0,25 4,47 13,64 9,18 22,31 39,39 17,8 35,13 54,13 16,0 32,-4 48,-10 16,-6 28,-13 36,-21 l 0,-54 -85,0 z"
     inkscape:connector-curvature="0"
     style="fill:#000000;fill-rule:nonzero" /><path
     id="1"
     class="fil1"
     d="m 14026.55,2699.2 c -19,-24 -36,-53 -49,-86 -14,-33 -21,-68 -21,-103 0,-31 5,-61 15,-90 12,-33 30,-66 55,-99 l 25,0 c -15,27 -26,47 -31,59 -8,18 -14,37 -19,56 -6,25 -8,49 -8,74 0,63 19,126 58,189 l -25,0 z"
     inkscape:connector-curvature="0"
     style="fill:#000000;fill-rule:nonzero" /><path
     id="2"
     class="fil1"
     d="m 14079.55,2552.2 35,-5 c 2,14 7,24 16,32 9,7 22,11 38,11 16,0 28,-3 36,-10 8,-6 12,-14 12,-23 0,-8 -3,-14 -11,-19 -5,-3 -17,-7 -36,-12 -26,-7 -44,-12 -54,-17 -10,-5 -17,-11 -23,-20 -5,-8 -7,-18 -7,-28 0,-9 2,-18 6,-26 4,-8 10,-14 17,-20 6,-4 13,-7 23,-10 9,-3 20,-4 30,-4 17,0 31,2 44,7 12,5 21,11 27,19 6,8 10,19 12,33 l -34,5 c -2,-11 -7,-20 -14,-26 -8,-6 -18,-9 -32,-9 -16,0 -28,3 -35,8 -7,5 -10,12 -10,19 0,4 1,9 4,12 3,4 8,7 14,10 3,1 14,4 31,9 25,7 42,12 52,16 10,4 18,11 24,19 6,8 8,18 8,30 0,12 -3,23 -10,33 -7,11 -17,19 -30,25 -13,5 -28,8 -44,8 -27,0 -48,-5 -62,-17 -14,-11 -24,-28 -27,-50 z"
     inkscape:connector-curvature="0"
     style="fill:#000000;fill-rule:nonzero" /><path
     id="3"
     class="fil1"
     d="m 14318.55,2699.2 -26,0 c 40,-63 59,-126 59,-189 0,-24 -3,-49 -8,-73 -5,-20 -11,-39 -19,-57 -5,-12 -16,-31 -32,-59 l 26,0 c 24,33 43,66 54,99 10,29 16,59 16,90 0,35 -7,70 -21,103 -13,33 -30,62 -49,86 z"
     inkscape:connector-curvature="0"
     style="fill:#000000;fill-rule:nonzero" /><path
     class="fil3 str1"
     d="m 8380.5731,4560.1999 2258.9999,0 c 66,0 119,53 119,119 l 0,1106 c 0,66 -53,120 -119,120 l -2258.9999,0 c -66,0 -119,-54 -119,-120 l 0,-1106 c 0,-66 53,-119 119,-119 z"
     linespacing="125%"
     role="line"
     id="path3008"
     inkscape:connector-curvature="0"
     style="fill:#fff688;stroke:#373435;stroke-width:26.48130035" /><polygon
     transform="translate(-2478.4269,6.199885)"
     id="text2995"
     class="fil1"
     points="11819,5195 11670,5195 11670,5331 11631,5331 11631,5042 11670,5042 11670,5161 11819,5161 11819,5042 11857,5042 11857,5331 11819,5331 "
     style="fill:#000000;fill-rule:nonzero" /><path
     id="path3011"
     class="fil1"
     d="m 9505.5731,5421.1999 c -19,-24 -36,-53 -49,-86 -14,-33 -20,-68 -20,-103 0,-31 5,-61 15,-90 12,-33 30,-66 54,-99 l 26,0 c -16,27 -27,47 -32,58 -8,19 -14,37 -19,57 -5,25 -8,49 -8,74 0,63 20,126 59,189 l -26,0 z"
     inkscape:connector-curvature="0"
     style="fill:#000000;fill-rule:nonzero" /><path
     id="path3013"
     class="fil1"
     d="m 9558.5731,5274.1999 35,-6 c 2,15 7,25 16,33 9,7 22,11 38,11 17,0 29,-3 37,-10 7,-6 11,-14 11,-23 0,-8 -3,-15 -10,-19 -5,-3 -17,-7 -37,-12 -26,-7 -43,-12 -54,-17 -10,-5 -17,-12 -22,-20 -6,-8 -8,-18 -8,-28 0,-9 2,-18 6,-26 5,-8 10,-14 18,-20 5,-4 13,-7 22,-10 10,-3 20,-4 31,-4 16,0 31,2 43,7 12,5 22,11 27,19 6,8 10,19 13,33 l -35,5 c -2,-11 -6,-20 -14,-26 -7,-6 -18,-9 -32,-9 -16,0 -28,3 -34,8 -7,5 -11,12 -11,19 0,4 2,9 4,12 3,4 8,7 14,10 4,1 14,4 31,9 25,6 43,12 53,16 10,4 17,11 23,19 6,8 9,18 9,30 0,12 -4,23 -11,33 -7,11 -17,19 -30,25 -13,5 -27,8 -44,8 -27,0 -48,-6 -62,-17 -14,-11 -23,-28 -27,-50 z"
     inkscape:connector-curvature="0"
     style="fill:#000000;fill-rule:nonzero" /><path
     id="path3015"
     class="fil1"
     d="m 9797.5731,5421.1999 -25,0 c 39,-63 59,-126 59,-189 0,-24 -3,-49 -9,-73 -4,-20 -11,-39 -19,-57 -5,-12 -15,-31 -31,-59 l 25,0 c 25,33 43,66 55,99 10,29 15,59 15,90 0,35 -7,70 -21,103 -13,33 -30,62 -49,86 z"
     inkscape:connector-curvature="0"
     style="fill:#000000;fill-rule:nonzero" /><path
     id="text2999"
     class="fil1"
     d="m 2650.2105,2168.6999 54,-257 39,0 -12,53 c 14,-20 27,-34 39,-44 13,-9 26,-14 39,-14 9,0 20,3 32,9 l -18,41 c -7,-6 -16,-8 -24,-8 -16,0 -32,8 -48,25 -16,17 -29,48 -38,92 l -21,103 -42,0 z"
     inkscape:connector-curvature="0"
     style="fill:#000000;fill-rule:nonzero" /><path
     id="path3018"
     class="fil1"
     d="m 2878.2105,2272.6999 c -26,-56 -39,-112 -39,-171 0,-39 6,-75 16,-108 10,-34 26,-67 47,-100 13,-22 36,-50 66,-85 l 34,0 c -19,20 -39,49 -60,85 -21,37 -36,72 -46,108 -9,35 -14,70 -14,106 0,53 9,108 28,165 l -32,0 z"
     inkscape:connector-curvature="0"
     style="fill:#000000;fill-rule:nonzero" /><path
     id="path3020"
     class="fil1"
     d="m 3081.2105,2133.6999 -7,35 c -11,3 -21,4 -31,4 -17,0 -31,-4 -41,-12 -8,-7 -12,-16 -12,-27 0,-5 2,-18 7,-39 l 31,-149 -35,0 7,-34 35,0 13,-62 50,-30 -20,92 43,0 -7,34 -43,0 -29,142 c -4,18 -6,29 -6,32 0,6 2,10 5,12 3,3 7,4 14,4 10,0 18,-1 26,-2 z"
     inkscape:connector-curvature="0"
     style="fill:#000000;fill-rule:nonzero" /><path
     id="path3022"
     class="fil1"
     d="m 3198.2105,1808.6999 c 25,56 38,112 38,170 0,40 -5,76 -16,109 -10,34 -25,67 -46,100 -14,22 -36,50 -67,85 l -34,0 c 19,-20 39,-49 60,-85 21,-37 36,-73 46,-108 9,-35 14,-70 14,-106 0,-53 -9,-108 -28,-165 l 33,0 z"
     inkscape:connector-curvature="0"
     style="fill:#000000;fill-rule:nonzero" /><path
     id="text3003"
     class="fil1"
     d="m 16115.468,401.69988 -26,-256.99999 42,0 11,115.99999 4,65 c 1,4 1,14 2,29 5,-17 10,-29 13,-38 3,-9 9,-21 16,-38 l 61,-133.99999 48,0 8,128.99999 c 1,19 2,45 3,78 8,-22 21,-52 39,-90 l 55,-116.99999 44,0 -125,256.99999 -46,0 -9,-150 c -1,-10 -2,-28 -2,-55 -7,17 -15,36 -24,56 l -68,149 -46,0 z"
     inkscape:connector-curvature="0"
     style="fill:#000000;fill-rule:nonzero" /><path
     id="path3025"
     class="fil1"
     d="m 16487.468,505.69988 c -26,-56 -38,-112 -38,-171 0,-39 5,-75 15,-108 10,-34 26,-67 47,-99.99999 14,-22 36,-50.000002 66,-85.000005 l 34,0 c -19,20.000003 -39,49.000003 -60,85.000005 -21,36.99999 -36,71.99999 -46,107.99999 -9,35 -14,70 -14,106 0,53 10,108 28,165 l -32,0 z"
     inkscape:connector-curvature="0"
     style="fill:#000000;fill-rule:nonzero" /><path
     id="path3027"
     class="fil1"
     d="m 16690.468,366.69988 -7,35 c -11,3 -21,4 -30,4 -18,0 -32,-4 -42,-12 -8,-7 -11,-16 -11,-27 0,-5 2,-18 6,-39 l 31,-149 -35,0 7,-33.99999 35,0 13,-62.000002 50,-30.000001 -20,92.000003 43,0 -7,33.99999 -43,0 -29,142 c -4,18 -6,29 -6,32 0,6 2,9 5,12 3,3 8,4 14,4 10,0 19,-1 26,-2 z"
     inkscape:connector-curvature="0"
     style="fill:#000000;fill-rule:nonzero" /><path
     id="path3029"
     class="fil1"
     d="m 16807.468,41.699885 c 25,55.000003 38,112.000005 38,169.999995 0,40 -5,76 -15,109 -11,34 -26,67 -47,100 -14,22 -36,50 -67,85 l -34,0 c 19,-21 39,-49 60,-85 21,-37 36,-73 46,-108 9,-35 14,-70 14,-106 0,-52.99999 -9,-107.999992 -28,-164.999995 l 33,0 z"
     inkscape:connector-curvature="0"
     style="fill:#000000;fill-rule:nonzero" /><path
     id="text3007"
     class="fil1"
     d="m 18380.437,2267.6999 3,-42 c 9,3 17,4 26,4 9,0 16,-2 21,-6 8,-5 15,-15 24,-30 l 14,-25 -43,-257 43,0 19,129 c 4,26 7,51 10,77 l 115,-206 45,0 -163,291 c -16,28 -30,47 -42,56 -12,9 -26,14 -42,14 -10,0 -20,-2 -30,-5 z"
     inkscape:connector-curvature="0"
     style="fill:#000000;fill-rule:nonzero" /><path
     id="path3032"
     class="fil1"
     d="m 18707.437,2272.6999 c -26,-56 -38,-112 -38,-171 0,-39 5,-75 15,-108 10,-34 26,-67 47,-100 14,-22 36,-50 66,-85 l 34,0 c -19,20 -39,49 -60,85 -21,37 -36,72 -46,108 -9,35 -14,70 -14,106 0,53 10,108 28,165 l -32,0 z"
     inkscape:connector-curvature="0"
     style="fill:#000000;fill-rule:nonzero" /><path
     id="path3034"
     class="fil1"
     d="m 18910.437,2133.6999 -7,35 c -10,3 -21,4 -30,4 -18,0 -32,-4 -42,-12 -7,-7 -11,-16 -11,-27 0,-5 2,-18 6,-39 l 31,-149 -35,0 7,-34 35,0 13,-62 50,-30 -20,92 43,0 -7,34 -42,0 -30,142 c -4,18 -6,29 -6,32 0,6 2,10 5,12 3,3 8,4 14,4 10,0 19,-1 26,-2 z"
     inkscape:connector-curvature="0"
     style="fill:#000000;fill-rule:nonzero" /><path
     id="path3036"
     class="fil1"
     d="m 19027.437,1808.6999 c 25,56 38,112 38,170 0,40 -5,76 -15,109 -10,34 -26,67 -47,100 -14,22 -36,50 -66,85 l -35,0 c 19,-20 39,-49 60,-85 21,-37 36,-73 46,-108 9,-35 14,-70 14,-106 0,-53 -9,-108 -28,-165 l 33,0 z"
     inkscape:connector-curvature="0"
     style="fill:#000000;fill-rule:nonzero" /><path
     id="text3011"
     class="fil1"
     d="m 11907.744,2120.1999 c -31,34 -62,51 -95,51 -19,0 -35,-5 -48,-16 -12,-12 -18,-26 -18,-42 0,-11 3,-29 9,-55 l 34,-149 44,0 -38,167 c -3,13 -4,24 -4,32 0,9 3,16 9,20 6,5 14,8 26,8 12,0 25,-3 36,-9 12,-6 23,-14 31,-24 9,-10 16,-22 21,-36 4,-8 8,-24 13,-46 l 24,-112 43,0 -56,257 -41,0 10,-46 z"
     inkscape:connector-curvature="0"
     style="fill:#000000;fill-rule:nonzero" /><path
     id="path3039"
     class="fil1"
     d="m 12070.744,2272.6999 c -26,-56 -38,-112 -38,-171 0,-39 5,-75 15,-108 10,-34 26,-67 47,-100 14,-22 36,-50 66,-85 l 34,0 c -19,20 -39,49 -60,85 -21,37 -36,72 -46,108 -9,35 -14,70 -14,106 0,53 10,108 28,165 l -32,0 z"
     inkscape:connector-curvature="0"
     style="fill:#000000;fill-rule:nonzero" /><path
     id="path3041"
     class="fil1"
     d="m 12273.744,2178.1999 -7,35 c -10,3 -21,4 -30,4 -18,0 -32,-4 -42,-12 -7,-7 -11,-16 -11,-27 0,-5 2,-18 6,-39 l 31,-149 -35,0 7,-34 35,0 13,-62 50,-30 -20,92 43,0 -7,34 -42,0 -30,142 c -4,18 -6,29 -6,32 0,6 2,10 5,12 3,3 8,4 14,4 10,0 19,-1 26,-2 z"
     inkscape:connector-curvature="0"
     style="fill:#000000;fill-rule:nonzero" /><path
     id="path3043"
     class="fil1"
     d="m 12390.744,1808.6999 c 25,56 38,112 38,170 0,40 -5,76 -15,109 -10,34 -26,67 -47,100 -14,22 -36,50 -66,85 l -35,0 c 19,-20 39,-49 60,-85 21,-37 36,-73 46,-108 9,-35 14,-70 14,-106 0,-53 -9,-108 -28,-165 l 33,0 z"
     inkscape:connector-curvature="0"
     style="fill:#000000;fill-rule:nonzero" /><path
     id="text3015"
     class="fil1"
     d="m 5785.2105,2081.6999 43,4 c -6,21 -21,41 -42,60 -22,19 -49,28 -79,28 -19,0 -37,-4 -53,-13 -15,-8 -28,-21 -36,-38 -8,-17 -12,-36 -12,-57 0,-28 6,-55 19,-81 13,-27 30,-46 51,-59 20,-13 43,-19 67,-19 30,0 55,10 73,28 18,19 27,45 27,78 0,12 -1,25 -3,38 l -189,0 c -1,5 -1,10 -1,14 0,24 5,42 16,55 11,13 25,19 41,19 15,0 30,-5 44,-15 15,-10 26,-24 34,-42 z m -127,-64 144,0 c 0,-5 0,-8 0,-10 0,-22 -5,-38 -16,-50 -11,-12 -25,-17 -43,-17 -18,0 -35,6 -51,19 -15,13 -27,32 -34,58 z"
     inkscape:connector-curvature="0"
     style="fill:#000000;fill-rule:nonzero" /><path
     id="path3046"
     class="fil1"
     d="m 5934.2105,2272.6999 c -25,-56 -38,-112 -38,-171 0,-39 5,-75 16,-108 10,-34 25,-67 47,-100 13,-22 35,-50 66,-85 l 34,0 c -19,20 -39,49 -60,85 -21,37 -36,72 -46,108 -9,35 -14,70 -14,106 0,53 9,108 28,165 l -33,0 z"
     inkscape:connector-curvature="0"
     style="fill:#000000;fill-rule:nonzero" /><path
     id="path3048"
     class="fil1"
     d="m 6138.2105,2178.1999 -7,35 c -11,3 -21,4 -31,4 -17,0 -31,-4 -41,-12 -8,-7 -12,-16 -12,-27 0,-5 2,-18 7,-39 l 31,-149 -35,0 7,-34 35,0 13,-62 50,-30 -20,92 43,0 -7,34 -43,0 -29,142 c -4,18 -6,29 -6,32 0,6 2,10 4,12 3,3 8,4 15,4 10,0 18,-1 26,-2 z"
     inkscape:connector-curvature="0"
     style="fill:#000000;fill-rule:nonzero" /><path
     id="path3050"
     class="fil1"
     d="m 6255.2105,1808.6999 c 25,56 38,112 38,170 0,40 -5,76 -16,109 -10,34 -25,67 -46,100 -14,22 -36,50 -67,85 l -34,0 c 19,-20 39,-49 60,-85 21,-37 36,-73 46,-108 9,-35 14,-70 14,-106 0,-53 -10,-108 -28,-165 l 33,0 z"
     inkscape:connector-curvature="0"
     style="fill:#000000;fill-rule:nonzero" /><polygon
     transform="translate(1758.169,7.199885)"
     id="path5408"
     class="fil4 str2"
     points="5595,2779 4979,3055 4979,2503 4979,1952 5595,2228 6211,2503 "
     linespacing="125%"
     role="line"
     type="star"
     sides="3"
     cx="128.79445"
     cy="502.33411"
     r1="37.894188"
     r2="18.947092"
     arg1="0"
     arg2="1.0471976"
     flatsided="false"
     rounded="0"
     randomized="0"
     transform-center-x="-6.1063678"
     style="fill:#ffaaaa;stroke:#000000;stroke-width:26.52129936;stroke-linecap:round;stroke-linejoin:round" /><polygon
     transform="translate(1758.169,7.199885)"
     id="text3019"
     class="fil1"
     points="5445,2648 5395,2648 5292,2502 5245,2548 5245,2648 5206,2648 5206,2359 5245,2359 5245,2502 5388,2359 5440,2359 5319,2476 "
     style="fill:#000000;fill-rule:nonzero" /><path
     id="path3052"
     class="fil5 str0"
     d="m 17484.468,2508.6999 c 0,281 -228,509 -509,509 -281,0 -510,-228 -510,-509 0,-282 229,-510 510,-510 281,0 509,228 509,510 z"
     linespacing="125%"
     role="line"
     type="arc"
     cx="535.88593"
     cy="513.95087"
     rx="15.152288"
     ry="15.152288"
     inkscape:connector-curvature="0"
     style="fill:#e6e6e6;stroke:#000000;stroke-width:26.48130035" /><path
     id="path3822"
     class="fil5 str0"
     d="m 5256.2105,2509.6999 c 0,282 -228,510 -509,510 -282,0 -510,-228 -510,-510 0,-281 228,-509 510,-509 281,0 509,228 509,509 z"
     ry="15.152288"
     rx="15.152288"
     cy="513.95087"
     cx="535.88593"
     type="arc"
     inkscape:connector-curvature="0"
     style="fill:#e6e6e6;stroke:#000000;stroke-width:26.48130035" /><line
     id="path3824"
     class="fil6 str0"
     x1="7969.1689"
     y1="2510.2"
     x2="8685.748"
     y2="2510.2"
     connector-curvature="0"
     style="fill:none;stroke:#000000;stroke-width:26.48130226" /><line
     id="path4270"
     class="fil6 str0"
     x1="15262.55"
     y1="2510.2"
     x2="16421.277"
     y2="2510.2"
     connector-curvature="0"
     style="fill:none;stroke:#000000;stroke-width:26.48130035" /><line
     id="path4272"
     class="fil6 str0"
     x1="17491.492"
     y1="2493.7002"
     x2="19431.5"
     y2="2493.7002"
     connector-curvature="0"
     style="fill:none;stroke:#000000;stroke-width:26.48130035" /><line
     id="path4276"
     class="fil6 str3"
     x1="13811.999"
     y1="5232.1997"
     x2="10809.213"
     y2="5232.1997"
     connector-curvature="0"
     style="fill:none;stroke:#000000;stroke-width:26.48130035;stroke-linecap:round;stroke-linejoin:round" /><line
     id="path4278"
     class="fil6 str3"
     x1="18139.336"
     y1="5232.1353"
     x2="18139.336"
     y2="2500.0225"
     connector-curvature="0"
     style="fill:none;stroke:#000000;stroke-width:26.48130035;stroke-linecap:round;stroke-linejoin:round" /><line
     id="path4280"
     class="fil6 str3"
     x1="8259.3379"
     y1="5232.6997"
     x2="4742.6865"
     y2="5232.6997"
     connector-curvature="0"
     style="fill:none;stroke:#000000;stroke-width:26.48130035;stroke-linecap:round;stroke-linejoin:round" /><line
     id="path4646"
     class="fil6 str4"
     x1="4747.2104"
     y1="3073.7002"
     x2="4747.2104"
     y2="5232.6997"
     connector-curvature="0"
     style="fill:none;stroke:#000000;stroke-width:26.48130035;stroke-linecap:round" /><polygon
     transform="translate(2264.2105,6.699885)"
     id="text5390"
     class="fil1"
     points="2169,2408 2169,2486 2247,2486 2247,2520 2169,2520 2169,2599 2135,2599 2135,2520 2057,2520 2057,2486 2135,2486 2135,2408 "
     style="fill:#000000;fill-rule:nonzero" /><polygon
     transform="translate(2264.2105,6.699885)"
     id="text5394"
     class="fil1"
     points="2538,2825 2538,2861 2428,2861 2428,2825 "
     style="fill:#000000;fill-rule:nonzero" /><polygon
     transform="translate(3789.4756,6.699885)"
     id="text5398"
     class="fil1"
     points="12991,2518 12913,2518 12913,2597 12879,2597 12879,2518 12800,2518 12800,2485 12879,2485 12879,2406 12913,2406 12913,2485 12991,2485 "
     style="fill:#000000;fill-rule:nonzero" /><polygon
     transform="translate(3789.4756,6.699885)"
     id="text5402"
     class="fil1"
     points="13281,2184 13203,2184 13203,2263 13169,2263 13169,2184 13091,2184 13091,2151 13169,2151 13169,2072 13203,2072 13203,2151 13281,2151 "
     style="fill:#000000;fill-rule:nonzero" /><line
     id="path5406"
     class="fil6 str0"
     x1="16974.482"
     y1="6.7001357"
     x2="16974.482"
     y2="1946.7001"
     linespacing="125%"
     role="line"
     connector-curvature="0"
     style="fill:none;stroke:#000000;stroke-width:26.48130035" /><line
     id="path5410"
     class="fil6 str0"
     x1="5260.5176"
     y1="2510.7002"
     x2="6499.3311"
     y2="2510.7002"
     connector-curvature="0"
     style="fill:none;stroke:#000000;stroke-width:26.48130035" /><line
     id="path5412"
     class="fil6 str0"
     x1="2264.2104"
     y1="2510.7002"
     x2="4183.2104"
     y2="2510.7002"
     connector-curvature="0"
     style="fill:none;stroke:#000000;stroke-width:26.48130035" /><polygon
     transform="translate(2264.2105,6.699885)"
     id="path5980"
     class="fil7 str5"
     points="1941,2504 1797,2554 1653,2604 1653,2504 1653,2404 1797,2454 "
     type="star"
     sides="3"
     cx="49.285713"
     cy="45.85627"
     r1="6.0740542"
     r2="3.0370266"
     arg1="0"
     arg2="1.0471976"
     flatsided="false"
     rounded="0"
     randomized="0"
     transform-center-x="-1.4292276"
     style="fill:#000000;stroke:#000000;stroke-width:36.23910141;stroke-linecap:round;stroke-linejoin:round" /><polygon
     transform="translate(2264.2105,6.699885)"
     id="path5980_0"
     class="fil7 str5"
     points="2483,3051 2534,3195 2584,3340 2483,3340 2383,3340 2433,3195 "
     type="star"
     sides="3"
     cx="49.285713"
     cy="45.85627"
     r1="6.0740542"
     r2="3.0370266"
     arg1="0"
     arg2="1.0471976"
     flatsided="false"
     rounded="0"
     randomized="0"
     transform-center-x="-1.4292276"
     style="fill:#000000;stroke:#000000;stroke-width:36.23910141;stroke-linecap:round;stroke-linejoin:round" /><polygon
     transform="translate(1755.7888,6.699885)"
     id="path5980_1"
     class="fil7 str5"
     points="4662,2504 4662,2404 4806,2454 4950,2504 4806,2554 4662,2604 "
     type="star"
     sides="3"
     cx="49.285713"
     cy="45.85627"
     r1="6.0740542"
     r2="3.0370266"
     arg1="0"
     arg2="1.0471976"
     flatsided="false"
     rounded="0"
     randomized="0"
     transform-center-x="-1.4292276"
     style="fill:#000000;stroke:#000000;stroke-width:36.23910141;stroke-linecap:round;stroke-linejoin:round" /><polygon
     transform="translate(3796.1648,-23.800049)"
     id="path5980_3"
     class="fil7 str5"
     points="12349,2634 12349,2534 12349,2434 12494,2484 12638,2534 12494,2584 "
     type="star"
     sides="3"
     cx="49.285713"
     cy="45.85627"
     r1="6.0740542"
     r2="3.0370266"
     arg1="0"
     arg2="1.0471976"
     flatsided="false"
     rounded="0"
     randomized="0"
     transform-center-x="-1.4292276"
     style="fill:#000000;stroke:#000000;stroke-width:36.23910141;stroke-linecap:round;stroke-linejoin:round" /><polygon
     transform="translate(3789.4756,6.699885)"
     id="path5980_4"
     class="fil7 str5"
     points="13185,1669 13286,1669 13235,1813 13185,1957 13135,1813 13085,1669 "
     type="star"
     sides="3"
     cx="49.285713"
     cy="45.85627"
     r1="6.0740542"
     r2="3.0370266"
     arg1="0"
     arg2="1.0471976"
     flatsided="false"
     rounded="0"
     randomized="0"
     transform-center-x="-1.4292276"
     style="fill:#000000;stroke:#000000;stroke-width:36.23910141;stroke-linecap:round;stroke-linejoin:round" /><polygon
     transform="translate(3789.4756,6.699885)"
     id="path5980_5"
     class="fil7 str5"
     points="15371,2487 15371,2387 15515,2437 15659,2487 15515,2537 15371,2587 "
     type="star"
     sides="3"
     cx="49.285713"
     cy="45.85627"
     r1="6.0740542"
     r2="3.0370266"
     arg1="0"
     arg2="1.0471976"
     flatsided="false"
     rounded="0"
     randomized="0"
     transform-center-x="-1.4292276"
     style="fill:#000000;stroke:#000000;stroke-width:36.23910141;stroke-linecap:round;stroke-linejoin:round" /><polygon
     transform="translate(-2478.4269,6.199885)"
     id="path5980_7"
     class="fil7 str5"
     points="13564,5226 13564,5125 13420,5176 13276,5226 13420,5276 13564,5326 "
     type="star"
     sides="3"
     cx="49.285713"
     cy="45.85627"
     r1="6.0740542"
     r2="3.0370266"
     arg1="0"
     arg2="1.0471976"
     flatsided="false"
     rounded="0"
     randomized="0"
     transform-center-x="-1.4292276"
     style="fill:#000000;stroke:#000000;stroke-width:36.23910141;stroke-linecap:round;stroke-linejoin:round" /><path
     transform="matrix(30.005675,0,0,30.005675,-3507.4438,341.22988)"
     d="m 578.8148,163.00151 a 2.0309291,2.0309291 0 0 1 -2.03093,2.03093 2.0309291,2.0309291 0 0 1 -2.03092,-2.03093 2.0309291,2.0309291 0 0 1 2.03092,-2.03093 2.0309291,2.0309291 0 0 1 2.03093,2.03093 z"
     sodipodi:ry="2.0309291"
     sodipodi:rx="2.0309291"
     sodipodi:cy="163.00151"
     sodipodi:cx="576.78387"
     id="path3084"
     style="fill:#000000;stroke:#000000;stroke-width:0.94134307;stroke-linecap:round;stroke-linejoin:round;stroke-miterlimit:4;stroke-opacity:1;stroke-dasharray:none"
     sodipodi:type="arc" /><path
     sodipodi:type="arc"
     style="fill:#000000;stroke:#000000;stroke-width:0.94134307;stroke-linecap:round;stroke-linejoin:round;stroke-miterlimit:4;stroke-opacity:1;stroke-dasharray:none"
     id="path3149"
     sodipodi:cx="576.78387"
     sodipodi:cy="163.00151"
     sodipodi:rx="2.0309291"
     sodipodi:ry="2.0309291"
     d="m 578.8148,163.00151 a 2.0309291,2.0309291 0 0 1 -2.03093,2.03093 2.0309291,2.0309291 0 0 1 -2.03092,-2.03093 2.0309291,2.0309291 0 0 1 2.03092,-2.03093 2.0309291,2.0309291 0 0 1 2.03093,2.03093 z"
     transform="matrix(30.005675,0,0,30.005675,-2979.687,341.22988)" /><line
     style="fill:none;stroke:#000000;stroke-width:26.48130226;stroke-linecap:round;stroke-linejoin:round"
     connector-curvature="0"
     y2="5232.1997"
     x2="13740.931"
     y1="5232.1997"
     x1="18136.838"
     class="fil6 str3"
     id="line3151" /><path
     class="fil2 str0"
     d="m 9130.7476,1837.2 2259.0004,0 c 66,0 119,52.9999 119,118.9999 l 0,1106 c 0,66 -53,120 -119,120 l -2259.0004,0 c -65,0 -119,-54 -119,-120 l 0,-1106 c 0,-66 54,-118.9999 119,-118.9999 z"
     linespacing="125%"
     role="line"
     id="path2999"
     inkscape:connector-curvature="0"
     style="fill:#afc6e9;fill-rule:evenodd;stroke:#000000;stroke-width:26.48129845" /><path
     id="text2991"
     class="fil1"
     d="m 10113.748,2512.1999 38,10 c -8,31 -22,55 -43,72 -21,16 -46,25 -76,25 -31,0 -57.0002,-7 -76.0002,-19 -20,-13 -34,-31 -45,-55 -10,-25 -15,-50 -15,-78 0,-30 6,-56 17,-79 12,-22 28,-39 49,-51 22,-11 45.0002,-17 70.0002,-17 29,0 53,7 73,22 20,15 33,35 41,62 l -37,9 c -7,-21 -17,-36 -29,-46 -13,-10 -29,-14 -48,-14 -23,0 -41.0002,5 -56.0002,16 -15,10 -25,25 -31,42 -6,18 -9,37 -9,56 0,24 3,46 10,64 7,19 19,32 34,41 15,9 31.0002,14 48.0002,14 22,0 40,-6 55,-19 14,-12 24,-30 30,-55 z"
     inkscape:connector-curvature="0"
     style="fill:#000000;fill-rule:nonzero" /><path
     id="path3002"
     class="fil1"
     d="m 10262.748,2698.1999 c -20,-24 -36,-53 -50,-86 -13,-33 -20,-68 -20,-103 0,-31 5,-61 15,-90 12,-33 30,-66 55,-99 l 25,0 c -16,27 -26,47 -31,59 -8,18 -15,36 -19,56 -6,25 -9,49 -9,74 0,63 20,126 59,189 l -25,0 z"
     inkscape:connector-curvature="0"
     style="fill:#000000;fill-rule:nonzero" /><path
     id="path3004"
     class="fil1"
     d="m 10314.748,2551.1999 35,-5 c 2,14 8,24 17,32 9,7 21,11 37,11 17,0 29,-3 37,-10 8,-6 12,-14 12,-23 0,-8 -4,-15 -11,-19 -5,-3 -17,-7 -36,-12 -26,-7 -44,-12 -54,-17 -10,-5 -18,-11 -23,-20 -5,-8 -8,-18 -8,-28 0,-9 2,-18 7,-26 4,-8 10,-14 17,-20 5,-4 13,-7 22,-10 10,-3 20,-4 31,-4 16,0 31,2.0001 43,7 13,5 22,11 28,19 6,8 10,19 12,33 l -35,5 c -1,-11 -6,-20 -13,-26 -8,-6 -19,-9 -32,-9 -17,0 -28,3 -35,8 -7,5 -11,12 -11,19 0,4 2,9 5,12 3,4 7,7 13,10 4,0.9999 14,4 32,9 25,6 42,12 52,16 10,4 18,11 23,19 6,8 9,18 9,30 0,12 -3,23 -10,33 -7,11 -17,19 -30,25 -13,5 -28,8 -44,8 -28,0 -48,-6 -63,-17 -14,-11 -23,-28 -27,-50 z"
     inkscape:connector-curvature="0"
     style="fill:#000000;fill-rule:nonzero" /><path
     id="path3006"
     class="fil1"
     d="m 10553.748,2698.1999 -25,0 c 39,-63 59,-126 59,-189 0,-24 -3,-49 -9,-73 -4,-20 -10,-39 -18,-57 -5,-12 -16,-31 -32,-59 l 25,0 c 25,33 43,66 55,99 10,29 15,59 15,90 0,35 -7,70 -20,103 -14,33 -30,62 -50,86 z"
     inkscape:connector-curvature="0"
     style="fill:#000000;fill-rule:nonzero" /><polygon
     id="path5980_2-1"
     class="fil7 str5"
     points="8011,2454 8155,2504 8011,2554 7867,2604 7867,2504 7867,2404 "
     type="star"
     sides="3"
     cx="49.285713"
     cy="45.85627"
     r1="6.0740542"
     r2="3.0370266"
     arg1="0"
     arg2="1.0471976"
     flatsided="false"
     rounded="0"
     randomized="0"
     transform-center-x="-1.4292276"
     style="fill:#000000;fill-rule:evenodd;stroke:#000000;stroke-width:36.23910141;stroke-linecap:round;stroke-linejoin:round"
     transform="translate(818.74805,6.1999512)" /><line
     style="fill:none;stroke:#000000;stroke-width:26.48130035"
     connector-curvature="0"
     y2="2509.7"
     x2="12447.432"
     y1="2509.7"
     x1="11508.747"
     class="fil6 str0"
     id="line3118" /><polygon
     transform="translate(4580.4335,5.69995)"
     style="fill:#000000;fill-rule:evenodd;stroke:#000000;stroke-width:36.23910141;stroke-linecap:round;stroke-linejoin:round"
     transform-center-x="-1.4292276"
     randomized="0"
     rounded="0"
     flatsided="false"
     arg2="1.0471976"
     arg1="0"
     r2="3.0370266"
     r1="6.0740542"
     cy="45.85627"
     cx="49.285713"
     sides="3"
     type="star"
     points="8011,2454 8155,2504 8011,2554 7867,2604 7867,2504 7867,2404 "
     class="fil7 str5"
     id="polygon3120" /></g></svg>