/* XPM */
static char * D:\Moreto\Programas\labcontrole\images\icon1_xpm[] = {
"32 32 237 2",
"  	c #FFFFFF",
". 	c #EFEFEF",
"+ 	c #B3B3B3",
"@ 	c #5C5C5C",
"# 	c #575757",
"$ 	c #373737",
"% 	c #FDFDFD",
"& 	c #363636",
"* 	c #141414",
"= 	c #E6E6E6",
"- 	c #FFFEFE",
"; 	c #E0E0E0",
"> 	c #0E0E0E",
", 	c #D3D3D3",
"' 	c #FF4E4E",
") 	c #FF3838",
"! 	c #C9C9C9",
"~ 	c #797979",
"{ 	c #4C4C4C",
"] 	c #949494",
"^ 	c #FFA8A8",
"/ 	c #FF7F7F",
"( 	c #FF9F9F",
"_ 	c #FF8787",
": 	c #F3F3F3",
"< 	c #C2C2C2",
"[ 	c #767676",
"} 	c #F4F4F4",
"| 	c #FF4D4D",
"1 	c #FFE2E2",
"2 	c #FF2D2D",
"3 	c #FFCDCD",
"4 	c #FFE8E8",
"5 	c #BFBFBF",
"6 	c #737373",
"7 	c #FF3030",
"8 	c #FF4A4A",
"9 	c #FFF3F3",
"0 	c #FFE1E1",
"a 	c #FF3737",
"b 	c #FF3F3F",
"c 	c #FFF0F0",
"d 	c #FF5858",
"e 	c #FF7878",
"f 	c #FFBBBB",
"g 	c #FF7070",
"h 	c #FFB7B7",
"i 	c #FFF9F9",
"j 	c #FFE4E4",
"k 	c #FF7777",
"l 	c #FFD3D3",
"m 	c #FF3535",
"n 	c #FFFDFD",
"o 	c #FFDADA",
"p 	c #FF5353",
"q 	c #FFEEEE",
"r 	c #FF2424",
"s 	c #FF8888",
"t 	c #FFD7D7",
"u 	c #FF9696",
"v 	c #FFC1C1",
"w 	c #FFC3C3",
"x 	c #FFFCFC",
"y 	c #FF2F2F",
"z 	c #FFDBDB",
"A 	c #FF3333",
"B 	c #787678",
"C 	c #FFCCCC",
"D 	c #FFBBBF",
"E 	c #FFD9DE",
"F 	c #FFA0A1",
"G 	c #FFF1F1",
"H 	c #FF595B",
"I 	c #FF6B6E",
"J 	c #FFE9EA",
"K 	c #FFF4F7",
"L 	c #FF4E51",
"M 	c #FFA6AB",
"N 	c #FF8586",
"O 	c #C1C1C1",
"P 	c #375037",
"Q 	c #519E53",
"R 	c #F7AEAB",
"S 	c #797E46",
"T 	c #78B178",
"U 	c #BAD7BA",
"V 	c #668848",
"W 	c #EC6D66",
"X 	c #90C798",
"Y 	c #4F994F",
"Z 	c #EAD7CE",
"` 	c #B84D30",
" .	c #72B67B",
"..	c #B7DABB",
"+.	c #935F31",
"@.	c #E7C5BB",
"#.	c #ADA27F",
"$.	c #955D31",
"%.	c #DEF1E3",
"&.	c #65AD6D",
"*.	c #F22D28",
"=.	c #BEA085",
"-.	c #825824",
";.	c #E55A50",
">.	c #DC3A2B",
",.	c #C62C15",
"'.	c #F54B47",
").	c #C7361F",
"!.	c #B76C4E",
"~.	c #FBFFFE",
"{.	c #C0BFC0",
"].	c #6E706E",
"^.	c #F2FFF8",
"/.	c #FF9393",
"(.	c #F2D1CB",
"_.	c #F2F8F2",
":.	c #F9FCF9",
"<.	c #F0E9E3",
"[.	c #FD4E4E",
"}.	c #F5FFFF",
"|.	c #EFF6EF",
"1.	c #FED4D4",
"2.	c #F79592",
"3.	c #F2FCF7",
"4.	c #F3C5C0",
"5.	c #FEA8A8",
"6.	c #F98E8B",
"7.	c #F1CCC7",
"8.	c #FDFEFD",
"9.	c #F1F8F2",
"0.	c #F5E1DD",
"a.	c #FFBEBE",
"b.	c #FED3D3",
"c.	c #FDEAE9",
"d.	c #F6F1ED",
"e.	c #F1ECE6",
"f.	c #FDF1F0",
"g.	c #F4E9E5",
"h.	c #F5F0EB",
"i.	c #FF7474",
"j.	c #FFBDBD",
"k.	c #FFC2C2",
"l.	c #FFF5F5",
"m.	c #FF5454",
"n.	c #FF5555",
"o.	c #FFB5B5",
"p.	c #FF8585",
"q.	c #FFDCDC",
"r.	c #FFFBFB",
"s.	c #FF3434",
"t.	c #FFECEC",
"u.	c #FF3C3C",
"v.	c #FF3B3B",
"w.	c #737474",
"x.	c #FF3232",
"y.	c #FFB1B1",
"z.	c #FF5757",
"A.	c #C7C9C9",
"B.	c #F8F8F8",
"C.	c #B9B9B9",
"D.	c #BDBDBD",
"E.	c #C3C3C3",
"F.	c #FAFAFA",
"G.	c #737575",
"H.	c #FFD5D5",
"I.	c #FF6060",
"J.	c #D5D5D5",
"K.	c #F7F7F7",
"L.	c #F2F2F2",
"M.	c #F1F1F1",
"N.	c #BABABA",
"O.	c #ECECEC",
"P.	c #DFDFDF",
"Q.	c #737676",
"R.	c #FF9E9E",
"S.	c #BCBCBC",
"T.	c #FEFEFE",
"U.	c #F6F6F6",
"V.	c #737878",
"W.	c #FF6262",
"X.	c #FFD1D1",
"Y.	c #D8D8D8",
"Z.	c #D2D2D2",
"`.	c #C6C6C6",
" +	c #E5E5E5",
".+	c #BBBBBB",
"++	c #EDEDED",
"@+	c #736B6B",
"#+	c #FF4747",
"$+	c #F9F9F9",
"%+	c #B6B6B6",
"&+	c #FCFCFC",
"*+	c #735C5C",
"=+	c #FF6E6E",
"-+	c #BEBEBE",
";+	c #FBFBFB",
">+	c #F5F5F5",
",+	c #734A4A",
"'+	c #FF9999",
")+	c #F0F0F0",
"!+	c #E7E7E7",
"~+	c #BFC0C0",
"{+	c #733939",
"]+	c #FFC7C7",
"^+	c #B7B7B7",
"/+	c #E2E2E2",
"(+	c #CACACA",
"_+	c #BFC1C1",
":+	c #733232",
"<+	c #BFC3C3",
"[+	c #732D2D",
"}+	c #FFEDED",
"|+	c #C0C4C4",
"1+	c #752A2A",
"2+	c #B4B4B4",
"3+	c #B49A9A",
"4+	c #3B1717",
"5+	c #949595",
"6+	c #919191",
"7+	c #939393",
"8+	c #6B6B6B",
"9+	c #181818",
"0+	c #1F1F1F",
"a+	c #424242",
"b+	c #717171",
"c+	c #E9EBEB",
"d+	c #8B8B8B",
"e+	c #A2A2A2",
"f+	c #A1A1A1",
"g+	c #A3A3A3",
"h+	c #7A7A7A",
"i+	c #1A1A1A",
"j+	c #1D1D1D",
"k+	c #454545",
"l+	c #747474",
"m+	c #D7D7D7",
"n+	c #EEEEEE",
"    .                                                           ",
"  + @                                                           ",
"  # $                                                           ",
"% & * =   -     -                                               ",
"; * > ,     ' )                                                 ",
"! ~ { ]   ^ / ( _                                               ",
": < [ }   | 1   2           3 4                                 ",
"  5 6   - 7     8 9       0 a b                                 ",
"  5 6   c d     e 1       e f g h       i                       ",
"  5 6   j k     ( l       m n o p     q r s                     ",
"  5 6   t u     v w     x m     y -   | z A n                   ",
"  5 B   C D     E F     G H     I J K L   M N                   ",
"  O P Q R S T U V W X Y Z `  ...+.@.#.$.%.&.*.=.-.;.>.,.'.).!.~.",
"  {.].^./.(._.:.<.[.}.|.1.2.3.:.4.5.6.7.8.9.0.a.b.c.d.e.f.g.h.  ",
"  5 6   i.j       2     j.k.    l.p m.n                         ",
"  5 6   n.c       k o.  p.q.      l.r.                          ",
"  5 6   s.n       t.u.G v.r.                                    ",
"  5 w.  x.          y.z.q.A.< B.        C.D.E.F.                ",
"  5 G.H.I.              J.B.K.L.    M.N.    O.P.                ",
"  5 Q.R.u             . S.  T.T.  T.N.U.    T.T.                ",
"  5 V.W.X.            Y.Z.        J.`.                          ",
"  5 V.y               E. +      % .+++                          ",
"  5 @+#+            T..+}       $+%+&+                          ",
"  5 *+=+            K.-+        ;+C.>+                          ",
"  5 ,+'+            )+!+    >+;+  E.,     F.U.                  ",
"  ~+{+]+        B.< ^+S.D..+/+T.  ;+(+.+S., $+                  ",
"  _+:+q.                                                        ",
"  <+[+}+                                                        ",
"  |+1+                                              2+Y.)+      ",
"  3+4+5+6+6+6+6+6+6+6+6+6+6+6+6+6+6+6+6+6+6+6+6+6+7+8+9+0+a+b+} ",
"  c+d+e+f+f+f+f+f+f+f+f+f+f+f+f+f+f+f+f+f+f+f+f+f+g+h+i+j+k+l+. ",
"                                                    ^+m+n+      "};
